<svg width="364" height="241" fill="none" xmlns="http://www.w3.org/2000/svg"><g clip-path="url(#a)"><path d="M273.1 204.3c-1.8 9.7-40.6 20.7-84 20.7-43.6 0-79.3-11-81-20.7-.5-2.6-18-76-17.3-89 3.2-16.6 57.9-8 98-8 41.5 0 98-12.8 101.5 8.9 1.5 9-16.8 85.8-17.2 88Z" fill="#fff" stroke="#000" stroke-miterlimit="10"/><path d="M188.8 186.5c5-.2 9.9-.4 14.8-.4 5.7 0 11.6.1 17.4-1 4-1 8.2-2.6 12.3-3 2.8-.4 5.8 0 8.7-.8 1.8-.4 3.2-1.2 5-1.4 5.4-.6 10.6-2 16-3.3 5-1.2 11.9-3.3 16.5-7.1 1.6-1.4 2-2.2 2.6-4.2l1.2-6.9c-16.7 7-49.5 12.7-94.5 12.7-44.6 0-81.2-2.8-91.4-13.8.8.8 1.6 7.1 2.2 8.4 1 2 3.3 3.2 5 4.4a52.6 52.6 0 0 0 17.2 7.2c4.2 1 8.1 2.8 12.2 4.2 4.3 1.5 8.4 1.7 12.7 2 4.2.3 8.3 1.5 12.4 2.3 4.3.7 8.6.7 12.9.9 5.6.3 11.2 0 16.8-.2Z" fill="#000"/><path d="M188.8 178.4c9 .1 18 1.2 27 .4 7.8-.6 15.9-2.7 23.7-4.8 4.2-1.1 8.4-.7 12.6-1.8 5.8-1.4 11.7-2.7 17.5-5 2.9-1 12.5-5 13.7-8.8 2.3-7.1 3-12 3.7-18-3.5 3.7-7 4.6-10.8 6.8-4 2.4-7.2 5.7-11.6 7a174.6 174.6 0 0 1-31.7 6.6l-19.2 2.1c-4.3.4-8.3 1.6-12.6 2.1-2.3.3-4.6-.4-6.9-.5-7.4-.3-14.7-.2-22.2-.6-6.2-.3-12.2-2-18.4-2.7-5-.5-10-3.2-15-3.3-3.3 0-6.8.4-10.2-.5-3.7-1-6.9-3.3-10.3-5.2-3.7-2-7.5-2.6-11.3-3.5-1.6-.5-12.6-7.2-12.7-9.5.2 5.4 1 16 5 20.5 3.7 4.2 9.5 5.5 14 7.4 5.6 2.4 11 4.3 16.7 6 7 2 13.5 2.4 20.6 2.9 8.7.5 17.2 2.3 25.9 2.4h12.5Z" fill="#fff" stroke="#000" stroke-miterlimit="10"/><path d="M189 216c4.6-.2 9.2-.4 13.8-.4 5.4 0 10.8.1 16.2-.9 3.8-.7 7.6-2.2 11.5-2.6 2.6-.3 5.4 0 8-.6 1.7-.4 3-1 4.8-1.3 5-.5 9.8-1.7 14.7-2.8 4.8-1.1 11.1-3 15.3-6.3.2 0 2.2-5.5 1.8-4.1l1.5-6.4c-15.5 6-45.7 12-87.5 12-41.6 0-74.5-.7-83.8-10.3.7.7.3 4.4.8 5.6 1 1.7 3 2.7 4.7 3.8 5 3.1 10.5 5 15.9 6.3 3.9.8 7.5 2.4 11.3 3.6 4 1.3 7.8 1.5 11.8 1.8 4 .3 7.7 1.3 11.5 2 4 .6 8 .6 12 .8 5.3.2 10.5 0 15.8-.2Z" fill="#000"/><path d="M189 209c8.4 0 16.8 1 25.2.3 7.3-.6 14.7-2.4 22-4.2 3.9-1 7.8-.6 11.7-1.5 5.4-1.3 10.8-2.5 16.2-4.4 2.7-1 11.4-5.2 12.4-8.6 2-6.2 2.5-9.7 3.1-15-3.2 3.3-6 4.3-9.5 6.2-3.8 2-6.7 4.9-10.7 6.1-9.6 2.9-20 4.6-29.4 5.7l-17.8 1.8c-4 .4-7.8 1.4-11.8 1.9-2.1.2-4.2-.4-6.3-.5-7-.3-13.7-.1-20.7-.5-5.7-.3-11.3-1.8-17-2.3-4.8-.4-9.3-2.8-14-3-3 0-6.3.4-9.5-.4-3.3-.8-6.3-2.8-9.5-4.5-3.4-1.7-6.9-2.2-10.4-3-1.5-.4-11.1-4.8-11.2-6.9.1 4.7.2 12.6 3.9 16.5 3.4 3.6 8.8 4.8 13 6.4 5.2 2 10.2 3.8 15.4 5.2 6.6 1.8 12.6 2 19.2 2.5 8 .5 16 2 24 2l11.7.2Z" fill="#fff" stroke="#000" stroke-miterlimit="10"/><path d="M298 95.3c3.5 6 1.4 15-2.5 24.2-1.4 5.4-8.7 21.4-8 26.4.3 1.8 1.7 4.8.2 6.7a2.8 2.8 0 0 1-4.5.1c-2.4-3 6.4-29.9 1.5-30-2.5 0-2.3 3.2-2.7 4.8-.4 1.6-1.1 4.6-3.3 4.7-2.3 0-1.6-2.7-2-4.4-2-7.3-5.9 17.8-6.4 21.2-.8 5.3.4 11.8-2.1 16.6-2.5 4.6-6.7 6.5-10.7 3.9a9 9 0 0 1-3.6-5.2c-.5-1.7-.5-5.3-2.2-6.4-2.2-1.4-4.5.8-6.7 1.7-9.2 3.6-6.2-6.3-6.6-11.7-.4-5.4-4.4-23.7-9-21.4-4.8 2.4-8 18-14 16.6-2.1-.5-4-3-6.4-2.4-4.6 1.4-2 10.3-7.6 10.4-4.4 0-6.3-13.6-10.7-5.4-1.8 3.3-.6 7.6-.4 11 .3 4.4.5 9.6-1.2 13.5-3.2 7.5-11.6 5-15.3-.8-4.8-7.2.7-26.1-5.5-34-3-3.7-6.6-8.6-11.7-7.3-3.6 1-5.5 4.8-8.6 6.4-4.2 2.1-7.2-.9-11.3-.6-2.8.2-3.8 21.4-4 23.8-.6 4.1-1.2 12.8-8.1 8.5-5.3-3.3-3.2-31-9.2-34-2.7-1.4-5.7 1-8.3-1.2-2.5-2-2-6.6-4.9-8.5-5.7-4 .2 38 .5 40.5s2.5 15.5-3.4 10c-2.2-2-1.3-4.7-1-7 1.8-10.1-20.6-61-10.4-72.5 5.5-6 14.9-4.2 18.9-6a86 86 0 0 1 21-6.4c20.5-3.4 41.3-5.3 62.3-5.3 13.2 0 26 .4 39 2 17.5 2.4 34.3 4 50.2 11 3.8 1.6 9.5 2.3 12.2 5.7 1 1.3 6.1-1.3 6.5.8Z" fill="#000"/><path d="M298.2 96.5c0 11-49.5 18.2-108 18.2S86.4 107.6 86.4 96.5c0-11.2 45.3-22 103.8-22s108 10.8 108 22Z" fill="#fff" stroke="#000" stroke-miterlimit="10"/><path d="M225.5 74.2c.6.8 1.3 2 1.3 2.3 0 .3-1.6.4-2.2.7 1.9-.4 6.3-2 7-.9.5.8 1 1.9 1 2.3-.1.4-1 1-2 1.3a38 38 0 0 1-14.6.1c-.6-.6-1.2-2-1.1-3 0-.7.7-1.2.7-1.7 3-1.7 9-2.3 9.9-1.1Z" fill="#000"/><path d="M224.4 73.6c1.5.5 1.6 1.2.4 1.8 1.8-.4 4.2-.3 5.7.2 1.7.6 1.5 1.5-.4 2.1-4 1.3-11.7.3-13.5.4.1-.6-3.2-3 1.3-4.5 1.9-.6 4.8-.6 6.5 0Z" fill="#000"/><path d="M257.3 70.5c3.6.7 4.6 1.9 3.5 2.7-.9.6-3.5 1-3.5 1.6 0 0 2.4-.4 3.8-.3 2.6 0 2.3-3.8-3.8-4Z" fill="#FFFAFE"/><path d="M266.4 83.7c-1.4.6.8 2 4 2.6-3.8-.3-7.3-3.3-8.2-2l-1.5 4c-.4.7 1.7 1.6 5.3 2.1 9 1.3 17.5.9 21.2-.1.9-1.7.1-4.2-.1-4.4-3-2.7-19.7-4-19.7-4-.7.7-1 1.8-1 1.8Z" fill="#000"/><path d="M267.8 81.5c-1.3.6 0 1.4 2.8 2-3.3-.3-6.7-.2-8 .4-1.4.6.6 1.6 4.4 2.2 8 1.1 17.4-.1 20-.2-.4-.6-2.3-3.4-9.7-4.5-3.8-.6-8-.5-9.5.1ZM258.5 96.7c-1 1.1-2 2.6-2 3.1 0 .4 2.1.7 2.7 1-2.3-.5-7.8-3-8.7-1.5a8.7 8.7 0 0 0-1.5 3c0 .6 1.1 1.5 2.3 2 5 2 17.6 1.5 18.6.8.9-.7 1.8-2.6 1.8-4.1 0-1-.8-1.6-.8-2.3-3.5-2.4-11-3.6-12.4-2Z" fill="#000"/><path d="M259.9 96c-2 .5-2.1 1.6-.7 2.5-2.3-.6-5.3-.7-7.2 0-2.3.6-2.2 2 .1 2.9 5 2 15 1 17.2 1 0-.8 4.5-3.9-1.1-6-2.3-1-6-1.2-8.3-.5ZM166.5 73.4c-.7.8-1.4 2-1.4 2.3 0 .3 1.7.4 2.2.7-1.8-.4-6.3-2-7-1-.4 1-1 2-.9 2.4 0 .4 1 1 2 1.3a38 38 0 0 0 14.6 0c.5-.5 1.2-1.9 1-3 0-.7-.6-1.1-.7-1.7-2.9-1.6-8.9-2.2-9.8-1Z" fill="#000"/><path d="M167.5 72.7c-1.5.5-1.6 1.3-.3 2-1.9-.5-4.2-.4-5.7 0-1.7.7-1.6 1.6.3 2.2 4 1.3 11.7.3 13.5.4 0-.6 3.2-3-1.3-4.5-1.9-.6-4.8-.6-6.5 0ZM126 83.4c1.3.6-.9 2-4 2.6 3.7-.3 7.2-3.3 8-2 .3.3 1.6 3.9 1.6 4 .4.7-1.7 1.6-5.3 2.1-9 1.3-17.5.9-21.2-.1-.9-1.7-.1-4.2.1-4.4 3-2.7 19.7-4 19.7-4 .7.7 1 1.8 1 1.8Z" fill="#000"/><path d="M124.5 81.2c1.2.6 0 1.4-2.8 2 3.3-.3 6.7-.2 7.9.4 1.4.6-.5 1.6-4.3 2.2-8 1.1-17.4-.1-20-.2.4-.6 2.3-3.4 9.7-4.5 3.8-.6 8-.5 9.5.1ZM139.6 96c.6 1.4 1 2.2.8 2.8 0 .5-1.8 2-2.5 2.4 2.4-.7 8.3-3.5 8.9-1.6.4 1.4.8 3.2.7 3.8-.2.6-1.4 1.8-2.6 2.3a35.6 35.6 0 0 1-18.3.2c-.6-.9-1.1-3.3-.7-5.1.2-1.1 1-2 1.2-2.8 4-2.8 11.6-4 12.5-2Z" fill="#000"/><path d="M138.4 95c1.8.8 1.7 2.2 0 3.2 2.5-.7 5.4-.6 7.1.2 2 1 1.7 2.6-.8 3.6-5.3 2.2-14.6.6-16.9.7.2-1-3.4-5 2.5-7.5 2.5-1 6.1-1.1 8.1-.2ZM202.5 98.2c.6 1.4 1 2.2.8 2.9 0 .5-1.8 1.9-2.5 2.3 2.4-.7 8.4-3.5 9-1.6.4 1.4.8 3.2.7 3.9-.2.7-1.4 1.8-2.7 2.3a36 36 0 0 1-18.6.3c-.6-1-1.1-3.4-.7-5.3.2-1.1 1-2 1.2-2.8 4-2.9 11.9-4 12.8-2Z" fill="#000"/><path d="M201.3 97.2c1.8.8 1.7 2.2 0 3.2 2.4-.7 5.4-.6 7.2.2 2 1 1.7 2.6-.8 3.7-5.4 2.2-15 .6-17.2.7.2-1-3.5-5.1 2.5-7.7 2.5-1 6.2-1 8.3-.1ZM135.8 90.4c.1.1 0 .3-.3.5-.2.2-.5.2-.5 0l-24.7-36.5c0-.2 0-.4.3-.5.3-.2.5-.3.6-.1l24.6 36.6Z" fill="#000"/><path d="M135.3 90.5v.2h-.2l-23-34.2v-.3h.2l23 34.3Z" fill="#000"/><path d="m104 40.9 4.5 2.6 4.7-2.3c2-.9 3.1 0 2.7 2.1l-1 5.1 3.5 3.8c1.5 1.5 1 3-1.1 3.2l-5.2.5-2.5 4.6c-1 2-2.5 1.9-3.4 0l-2.2-4.8-5.1-1c-2-.4-2.5-1.8-1-3.2l4-3.6-.8-5.1c-.2-2.1 1-3 2.9-2Z" fill="#fff" stroke="#000" stroke-miterlimit="10"/><path d="M204.6 83.4c0 .1-.2.2-.5.1-.3 0-.5-.2-.5-.3l7.4-43.5c0-.2.2-.2.5-.2s.5.2.5.4l-7.4 43.5Z" fill="#000"/><path d="m204.2 83.1-.2.2-.1-.2 6.8-40.7.2-.1.2.2-7 40.6Z" fill="#000"/><path d="m215.6 25.5 1.5 5 5 1.7c2 .6 2.2 2.1.5 3.3l-4.3 3v5.2c0 2.1-1.3 2.8-3 1.5L211 42l-5 1.7c-2 .6-3-.5-2.3-2.5l1.7-4.9-3-4.2c-1.3-1.7-.6-3 1.5-3l5.2.1 3.1-4.2c1.2-1.7 2.7-1.5 3.3.5Z" fill="#fff" stroke="#000" stroke-miterlimit="10"/><path d="M163.3 92.5c0 .1-.2.3-.6.4-.3 0-.6 0-.6-.2l-11.4-72.9c0-.1.2-.3.6-.3.3 0 .6 0 .6.2l11.4 72.8Z" fill="#000"/><path d="M162.7 92.4s0 .2-.2.2c0 0-.2 0-.2-.2L151.4 23c0-.1 0-.2.2-.2l.2.1 11 69.6Z" fill="#000"/><path d="m150.7 2.8 3.4 4.9h6c2.4 0 3.2 1.5 1.8 3.4l-3.7 4.8 2 5.7c.7 2.3-.6 3.5-2.8 2.7l-5.7-2-4.8 3.6c-2 1.4-3.5.6-3.5-1.8l.1-6-4.8-3.5c-2-1.4-1.7-3 .6-3.8l5.7-1.7 1.9-5.7c.7-2.4 2.4-2.6 3.8-.6Z" fill="#fff" stroke="#000" stroke-miterlimit="10"/><path d="M249.2 96.2c0 .1-.4.2-.7 0-.4 0-.6-.2-.5-.4l15.4-49.3c0-.2.4-.2.7 0 .3 0 .6.2.5.4l-15.4 49.3Z" fill="#000"/><path d="M248.7 95.8c0 .1-.2.2-.3.1l-.1-.2 14.4-46c0-.2.2-.2.3-.2.1 0 .2.1.1.3l-14.4 46Z" fill="#000"/><path d="m271.1 30.8 1 6 5.5 2.7c2.2 1 2.2 2.9 0 4l-5.5 2.8-.8 6c-.3 2.5-2 3-3.7 1.3l-4.4-4.4-6 1.1c-2.4.5-3.5-1-2.4-3.1l2.8-5.5-2.9-5.4c-1.1-2.2-.1-3.6 2.3-3.2l6 1 4.3-4.5c1.7-1.8 3.4-1.2 3.8 1.2Z" fill="#fff" stroke="#000" stroke-miterlimit="10"/><path d="M342.2 106c1.7-5.6 4-9-1.7-11s-7.4-.3-8.5 1.5c-1 1.7-2.7 11.5-.4 12.3l2.3.5-.4 2.7v.3l-.8 4.3 5.3 1.2 3.7-2.8s-1.3-2.7-1.1-6.7c.7-.5 1.3-1.3 1.6-2.3Z" fill="#fff" stroke="#000" stroke-width=".9" stroke-miterlimit="10"/><path d="M332.4 96s.6 6.5 2 6.2c1.3-.3 2.5-.5 2.3 1.5-.2 2-2 4.2 2.1 4.6 4.2.3 10.1-10.4 9-12.5-3.3-5.8-20.2-7-15.4.1ZM311.2 131.2l-.7-1.7c-.2-.6-1-.9-1.5-.6l-7.3 2.9c-.6.2-1 .9-.7 1.5l.7 1.7c.2.6 1 .9 1.5.6l2.6-1 2.4 5.8c.2.6.8.9 1.4.7.5-.3.8-.9.6-1.4l-2.3-6 2.6-1c.6-.2.9-.9.7-1.5Z" fill="#000"/><path d="m299.4 129.3 9.5-3.8 1.5 5-8.5 3.6-2.5-4.8Z" fill="#fff" stroke="#000" stroke-width=".9" stroke-miterlimit="10"/><path d="M300 130.5s1 .3 2.1-.5c1.2-.8.7-1.5 2.1-1.3 1.5.2 2.7-.4 3-1 .1-.6 2.4-.4 2.4-.4l-.7-1.8-9.5 3.8.5 1.2Z" fill="#000"/><path d="M309.4 140c.1.1 0 .3-.1.3-.2.1-.3 0-.4-.1 0-.2 0-.3.2-.4.1 0 .3 0 .3.2Z" fill="#8CC6F8"/><path d="M305.5 112.4s-1.6-3.3-2.9-4.4c-1.3-1-4.7-.7-4.9-.5-.4.8 2.8 2.1 3.2 2.9.3.7-1.2.6 0 2 1 1 3.3 2 3.3 2l1.3-2Z" fill="#fff" stroke="#000" stroke-width=".8" stroke-miterlimit="10"/><path d="M304.1 112c.8-1.3 1-1.4 1-1.4l15.2 6c1.3.5 21 1.6 21 1.6l6 13s-26.3-6-29.6-7.1c-5.5-2-14.3-10-14.3-10s0-1 .7-2.1Z" fill="#fff" stroke="#000" stroke-width=".9" stroke-miterlimit="10"/><path d="M338.4 234s-.3 4.9-1.2 6h-13.9c.1-.5.5-1.7 2.2-2 2.2-.3 5.9-1.9 7.2-4.8 1.4-3 5.7.8 5.7.8ZM362.9 233.4s.9 6.3-.3 6.4h-13.7a.7.7 0 0 1-.6-1c.3-.5.8-1 1.9-1.2 2.1-.4 5.8-2 7-5 1.4-3 5.7.8 5.7.8Z" fill="#fff" stroke="#000" stroke-width=".9" stroke-miterlimit="10" stroke-linecap="round"/><path d="M331.9 169.6s3.4 12.2 13.4 33.3c10 21.2 10.7 30.8 10.7 30.8l7-.3s-.7-25.2-5.4-35.9c-4.7-10.6-5.7-39.8-5.7-39.8l-20 11.9ZM333 113.7a51 51 0 0 1 8-2c.8.3 1.3 1.8 1.3 1.8l-11 3.1s.3-2.3 1.7-3Z" fill="#000"/><path d="M352.2 161.5c-1.2 5.5-26.4-11.8-26-15.2v-1c.5-4.8 1-9.4 1-12.3a41.5 41.5 0 0 1 2.3-13.5 6.4 6.4 0 0 1 4.4-4.3c3-1 7.2-2 8.4-1.7 3 1 5.4 6.3 7 13.3 3 12.9 3.7 31 3 34.7Z" fill="#fff" stroke="#000" stroke-width=".9" stroke-miterlimit="10"/><path d="M352.2 161.5c1.8-3.3.1-21.8-3-34.8l-6.4 1.5s1 14.3-1.2 17.2c-2.2 3-10.7.8-10.7.8l-4.7.1c-.4 3.4 0 17 0 17v.1c.2 6.8.7 21.2 3 37.7 3.3 23.2 2.2 33 2.2 33l7.8.3s4.7-23.2 3.3-34.8c-.6-5.2.7-13.7 2.2-21.5 0-.3 1.2-5 7.5-16.6Z" fill="#000"/><path d="M313.7 138.4s-3.1-2.1-3.7-2.3c-.6-.2-1-1.1-1-1.3-.4-.5-.8.8-.6 1.2.2.4.6 1.5-.3 1.4-.2 0-1.5-1-1.8-.4-.3.7-.5 2.9 1 3.5 1.4.7 5.1 0 5.4.2 2.2.6 1-2.3 1-2.3Z" fill="#fff" stroke="#000" stroke-width=".8" stroke-miterlimit="10"/><path d="M340.1 121s3 2.8 2.7 5.8c-.9 6.8-2.2 20.7-6.8 22.8-5.9 2.7-22.9-7.6-22.9-7.6s-.5-.7-.4-2c0-1.1 1-2.2 1-2.2s15 2.6 16.4 2c2.1-1.1.3-15.8.3-15.8" fill="#fff"/><path d="M340.1 121s3 2.8 2.7 5.8c-.9 6.8-2.2 20.7-6.8 22.8-5.9 2.7-22.9-7.6-22.9-7.6s-.5-.7-.4-2c0-1.1 1-2.2 1-2.2s15 2.6 16.4 2c2.1-1.1.3-15.8.3-15.8" stroke="#000" stroke-width=".9" stroke-miterlimit="10" stroke-linecap="round"/><path d="m344 127.9-1.2.3s-2.6-11.5-11.5-11.6c.6-.5 1.3-1 2-1.2 3.3.8 9 3.6 10.8 12.5ZM304.7 107.7a1 1 0 0 0-1.4-.4l-5.2 3.1-3-5c-.5-.8-1.5-1-2.2-.6l-.7.4c-.8.5-1 1.4-.6 2.2l7.1 11.9c.5.8 1.4 1 2.2.5l.7-.4c.7-.4 1-1.4.5-2.1l-3-5.1 5.2-3.1c.5-.3.6-1 .4-1.4Z" fill="#000"/><path d="m301 119.2-4 3-8.8-14.7 1-.5 3.6-1.6 8.2 13.8Z" fill="#fff" stroke="#000" stroke-width=".9" stroke-miterlimit="10"/><path d="m298.1 121.4-1.2.8-8.7-14.7 1-.5c.4.4 2.7 2.1 2.9 4 .2 2.2 2.8 3.6 2.9 4.7 0 1.2 0 2.8 1.3 3.3 1.4.5 1.8 2.4 1.8 2.4Z" fill="#000"/><path d="M303.7 108h.3c.1.2 0 .3 0 .4-.2.1-.3 0-.4 0-.1-.2 0-.4 0-.4Z" fill="#8CC6F8"/><path d="m302 111.4-1.3-1.6c-.5-.6-.8-1.4-1-1.6-.6-.5-1 .7-.2 2.2a8 8 0 0 0 2.2 2.6" fill="#fff"/><path d="m302 111.4-1.3-1.6c-.5-.6-.8-1.4-1-1.6-.6-.5-1 .7-.2 2.2a8 8 0 0 0 2.2 2.6" stroke="#000" stroke-width=".9" stroke-miterlimit="10" stroke-linecap="round"/><path d="M87.2 161.4a.4.4 0 0 1-.2-.5l1.8-4.2c.2-.3 0-.7-.3-.8l-9.1-4c-.7-.3-1-1.2-.8-1.9L80 147c.3-.7 1.2-1 2-.8l3.7 1.7c.2 0 .3.3.2.5 0 .3-.3.3-.5.3l-3.8-1.7a.7.7 0 0 0-.9.3l-1.3 3.1c-.2.4 0 .8.3.9l9.1 4c.7.3 1 1.1.8 1.9l-1.9 4.1c0 .2-.3.3-.5.2Z" fill="#000"/><path d="m87 163-1-.4a.7.7 0 0 1-.3-1l2-4.6c.2-.4.6-.5 1-.4l.9.4c.3.2.5.6.3 1l-2 4.6c-.2.4-.6.5-1 .4Z" fill="#000"/><path d="m101.3 153.3-1.2 3c-.4.7-1.3 1-2 .7L83 150.4a1.5 1.5 0 0 1-.8-2l1.3-2.9c.3-.7 1.2-1 2-.8l15 6.7c.8.3 1.2 1.2.8 2Z" fill="#fff" stroke="#000" stroke-width=".9" stroke-miterlimit="10" stroke-linecap="round"/><path d="m101.3 153.3-.4 1c-.3.8-1.2 1.2-2 .8l-15.1-6.6a1.5 1.5 0 0 1-.8-2l.5-1c.3-.7 1.2-1 2-.8l15 6.7c.8.3 1.2 1.2.8 2Z" fill="#000"/><path d="M60 165.2s3.3.5 4 1.3c.8.9 1.3 1.5.8 2-.5.3-7.7-1.6-7.7-1.6l3-1.7Z" fill="#fff" stroke="#000" stroke-width=".8" stroke-miterlimit="10"/><path d="M52.1 153.5 61 165s-.8 1.5-3.3 1.8c-2.5.3-7.7-1.3-7.7-1.8l2.1-11.4ZM53.8 213.2h14c-.2-.5-.8-1.3-2-1.5-2.3-.4-6-1.5-5.6-4.7.5-3.3-4.9-3.7-4.9-3.7s-2.2 8.6-1.5 9.9ZM61.2 106.8c-4.9-2.4-5.7 1.3-8.3 5.9a4 4 0 0 0-.4 2.7c-2.8 4.1-7 4.7-7 4.7s5.9 8.2 11.2 8.7c0 0-.7-3.1-2.2-5a46.2 46.2 0 0 0 1.8-3.4l1.5 1c2 1 7.3-6.4 7.8-8.1.5-1.8.5-4-4.4-6.5Z" fill="#fff" stroke="#000" stroke-width=".9" stroke-miterlimit="10" stroke-linecap="round"/><path d="M53 103.5c0-.2-.2-.3-.6-.5l.8.1c.3-.5 1-1.3 2-1.2 0 0-.6 0-1 .6 1.6-.7 4.2-.6 10.3 2.3 8 4 3.2 8.3 2 8.5-1.4.2-3.5-2.6-5.5-3.2-2-.6-3.6 2.2-4.5 2.3-.8.2-.2-.5-1-1.2-.8-.8-1.5.7-1.6 1.8 0 1.1-1.9 2-1.9 2l-.7-2c-.8-1.8.3-8.2 1.4-9.3l.3-.2Z" fill="#000"/><path d="M8.2 204.3s-1.7 2.6-2.1 3.5c-.4.8.4 2.6 1.6 3 1 .2 1.2 2 1.2 2H3.8c-.6 0-1-.3-1.3-.7-.7-1.6-.9-3.7-1-4.4-.3-1.4-.9-2.6-.6-4.1.2-1.5 2.7-2.3 7.3-2.3 5 0 0 3 0 3ZM23.3 172.4c3.8 4 32-4.4 29.7-6.6-.6-.5-.4-1.2-.6-2-1.2-4.2 1.1-11.4 2.1-14.1l.5-1.1a48 48 0 0 0 2.2-8c.9-5 .9-9.6-.4-12.4 0 0 0 0 0 0-5.3-1.6-8.2-9.4-8.2-9.4s-16.8 4.8-23 28.7l-.6 3.8-.4 2.3c-.6 4.3-1 9.8-1.4 13.8v.5c-.3 1.7-.6 3.8 0 4.5Z" fill="#fff" stroke="#000" stroke-width=".9" stroke-miterlimit="10" stroke-linecap="round"/><path d="M45.7 120s7.2 1.5 8 7.8c.4 4.5-4.6 14.9-4.6 14.9l-1-1s4.5-12.8 3.8-15c-.9-2.7-5-6.9-8.8-5.2l2.6-1.5Z" fill="#000"/><path d="M80.7 176c0-4.6-13.4-8.2-27.3-10.3-.5-.5-.8-1.2-1-2-1.2-4.1 1.1-11.3 2.1-14l.5-1.2-1.5-1.4-5.3-5.4s-1.6 1.8-4.6 3.9a33 33 0 0 1-18.6 5.7l-.4 2.3c-.7 4.3-1 9.8-1.4 13.8v.5c-.2 1.7-.6 3.8 0 4.5l.6.3c-.2.8 0 2.4.6 4.4 1.5 5 5 13.2 9 20.4-10.3.6-24.4 2.9-24.4 2.9-2.3 2.6-1.3 5.6-1.3 5.6l6 .8c11 1.8 24.3 5.4 32.6 5.4 1.8 0 3.1-1.3 3.7-3 1.8-5.4.5-16.4-1.2-25.6a195 195 0 0 0 12.9-.1h1c-4.2 9-8.4 21-8.4 21 1.4 4.2 7.3 3.6 7.3 3.6a802.2 802.2 0 0 1 18.6-30c.6-.7.5-1.3.5-2Z" fill="#000"/><path d="M87.3 162.7c-1.8 0-5-1.6-5.3-1.7-2.5-.2-.1-2.7-.1-2.7s4-.8 4.6-.8l1 .2-.5 1s2.7.4 2.8 1.2c0 .8-1.7 2.8-2.5 2.8Z" fill="#fff" stroke="#000" stroke-width=".8" stroke-miterlimit="10"/><path d="M39.5 137.4c5.1 5.5 15.4 16.2 18 17.8 6 3.6 23.7 6.6 23.7 6.6s1-.9 1.5-2.3c.6-1.7-.3-2.2-.3-2.2s-17-8.1-18.5-9a197 197 0 0 1-10.7-18s-3.5-7-8-6.9" fill="#fff"/><path d="M39.5 137.4c5.1 5.5 15.4 16.2 18 17.8 6 3.6 23.7 6.6 23.7 6.6s1-.9 1.5-2.3c.6-1.7-.3-2.2-.3-2.2s-17-8.1-18.5-9a197 197 0 0 1-10.7-18s-3.5-7-8-6.9" stroke="#000" stroke-width=".9" stroke-miterlimit="10" stroke-linecap="round"/><path d="m236.5 88-.6.2c-.3 0-.6-.1-.6-.3l.2-68.4c0-.2.2-.3.6-.3.3 0 .5.1.5.3l-.1 68.4Z" fill="#000"/><path d="m236 87.7-.2.2c-.1 0-.2 0-.2-.2l.1-65.3c0-.1 0-.2.2-.2 0 0 .2 0 .2.2l-.1 65.3Z" fill="#000"/><path d="m238 3.8 2.4 5 5.5.9c2.2.3 2.7 1.9 1 3.4l-4 3.9 1 5.4c.3 2.3-1 3.2-3 2.1l-4.8-2.6-5 2.6c-2 1-3.3 0-2.9-2.2l1-5.4-4-4c-1.6-1.5-1-3 1.2-3.4l5.5-.7 2.5-5c1-2 2.6-2 3.6 0Z" fill="#fff" stroke="#000" stroke-miterlimit="10"/><path d="M286.9 222.3c-2.8 0-12.7.8-13-1.6-.5-2.4 6.8-4.3 15.3-4.4 8.6-.2 6.9 1.1 13.5 1.4 6.6.3 6.5 4.8-4.6 4.7l-11.2-.1ZM80.2 207.8c1.7-1.5 11.2-1.6 15.4-1 4.2.6 7-2 8.8 1 1.7 2.8-6.3 5.3-13.5 5-7.1-.4-15.3-1.2-10.7-5ZM78.9 217.4c2.2 0 4-.5 4-1.1 0-.7-1.8-1.2-4-1.2s-4 .5-4 1.2c0 .6 1.8 1.1 4 1.1ZM192.3 29.9c0-.1-1.5-2.4.3-6.3l.5.2c-1.7 3.6-.3 5.8-.3 5.8l-.5.3Z" fill="#000"/><path d="M198 89.7c0 .7-1.7 1.1-4.8 1-.5 0-1.8 1-2.3.6-2-1-3.6-.9-3.6-1.6V52.5c0-4.6-.3-9.4 0-14v-4.2c-.2-2.7 4-6.6 7-5 1.6 1 3.3 2.3 3.6 4.1.2 1.2 0 3 0 4.2.2 4.5.1 9 0 13.5v38.6Z" fill="#000"/><path d="M197.7 48.4v5.5c-.8 1.8-2.2 4-5 5.5a13.2 13.2 0 0 0-5 4l-.1-5.4c.9-1.3 2.5-2.6 5.1-4a10 10 0 0 0 5-5.6Zm-5 36.2a13.3 13.3 0 0 0-5 3.9v1.2c0 .7 1.3.7 3 1.5l2-1.2a10 10 0 0 0 5-5.6V79c-.8 1.8-2.1 4-5 5.5Zm0-51a13.5 13.5 0 0 0-5 3.9v1c-.2 1.5-.2 3-.2 4.6 1-1.4 2.5-2.7 5.2-4a10 10 0 0 0 4.9-5.5v-.2c-.2-1-.8-1.8-1.5-2.5-.8 1-1.9 2-3.4 2.8Zm0 10.3a13 13 0 0 0-5 3.9v5.3c.8-1.3 2.4-2.5 5-3.9a10 10 0 0 0 5-5.8v-5c-.8 1.8-2.1 4-5 5.5Zm0 30.5a13.3 13.3 0 0 0-5 4v5.2c.9-1.3 2.4-2.5 5-3.8a9.9 9.9 0 0 0 5-5.6l-.1-5.3c-.7 2-2 4-4.9 5.5Zm4.9-15.6c-.7 1.8-2 4-4.9 5.4a13.4 13.4 0 0 0-5 4v5.3c.8-1.4 2.4-2.6 5-4a9.9 9.9 0 0 0 4.9-5.4v-5.3Z" fill="#fff" stroke="#000" stroke-width=".5" stroke-miterlimit="10"/><path d="m191.9 28.6-.2-.8v-1.2l.1-1.7c.1-.6.3-1.3.6-1.8.4-.6 1.2 0 1 .6l-.3.7c-.2.4-.5.8-.6 1.3-.2.4-.1.9-.1 1.3v1.4c-.2-.1-.3-1.6-.3-1.8-.2.2-.2.7-.2 1v1Z" fill="#180A19"/></g><defs><clipPath id="a"><path fill="#fff" transform="translate(.4 1)" d="M0 0h363.3v239.5H0z"/></clipPath></defs></svg>