<svg id="Layer_1" data-name="Layer 1" xmlns="http://www.w3.org/2000/svg" viewBox="0 0 225.44 56.45"><defs><style>.cls-1,.cls-2{fill:#565656;}.cls-2{fill-rule:evenodd;}</style></defs><path class="cls-1" d="M219.9,56.45H146.22c-3.05,0-5.53-2.77-5.53-6.18V6.18c0-3.41,2.48-6.18,5.53-6.18H219.9c3.06,0,5.54,2.77,5.54,6.18V50.27C225.44,53.68,223,56.45,219.9,56.45ZM146.22,3a3,3,0,0,0-2.86,3.2V50.27a3,3,0,0,0,2.86,3.2H219.9a3,3,0,0,0,2.87-3.2V6.18A3,3,0,0,0,219.9,3Z"/><path class="cls-1" d="M156,38.34a1.53,1.53,0,0,1-1.5-1.78l.88-5.27-3.85-3.71a1.53,1.53,0,0,1,.84-2.61l5.28-.79L160,19.37a1.51,1.51,0,0,1,1.36-.85h0a1.5,1.5,0,0,1,1.36.84l2.39,4.78,5.3.75a1.53,1.53,0,0,1,.85,2.6l-3.81,3.75.93,5.26a1.53,1.53,0,0,1-2.21,1.62l-4.74-2.47-4.72,2.51A1.54,1.54,0,0,1,156,38.34Zm-.12-10.81,2.19,2.12a1.55,1.55,0,0,1,.45,1.35L158,34l2.7-1.44a1.52,1.52,0,0,1,1.42,0L164.85,34l-.53-3a1.53,1.53,0,0,1,.43-1.36l2.18-2.14-3-.43a1.51,1.51,0,0,1-1.15-.83l-1.37-2.73L160,26.24a1.53,1.53,0,0,1-1.14.84Zm2.79-2Z"/><path class="cls-1" d="M197.13,29.91H175.47a1.53,1.53,0,0,1,0-3.05h21.66a1.53,1.53,0,0,1,0,3.05Z"/><path class="cls-1" d="M186.68,37.84h-11a1.53,1.53,0,1,1,0-3.05h11a1.53,1.53,0,1,1,0,3.05Z"/><path class="cls-1" d="M202.29,37.84H193c-.62,0-1.12-.68-1.12-1.52s.5-1.53,1.12-1.53h9.29c.61,0,1.11.68,1.11,1.53S202.9,37.84,202.29,37.84Z"/><path class="cls-1" d="M214.14,29.91H203.78c-.62,0-1.12-.69-1.12-1.53s.5-1.52,1.12-1.52h10.36c.62,0,1.13.68,1.13,1.52S214.76,29.91,214.14,29.91Z"/><path class="cls-1" d="M182.59,21.77h-6.88a1.53,1.53,0,1,1,0-3.05h6.88a1.53,1.53,0,1,1,0,3.05Z"/><path class="cls-1" d="M194.17,21.77h-4.69c-.62,0-1.12-.68-1.12-1.53s.5-1.52,1.12-1.52h4.69c.62,0,1.12.68,1.12,1.52S194.79,21.77,194.17,21.77Z"/><path class="cls-1" d="M203.91,21.77h-4.69c-.62,0-1.12-.68-1.12-1.53s.5-1.52,1.12-1.52h4.69c.62,0,1.12.68,1.12,1.52S204.53,21.77,203.91,21.77Z"/><path class="cls-1" d="M213.65,21.77H209c-.62,0-1.13-.68-1.13-1.53s.51-1.52,1.13-1.52h4.69c.62,0,1.12.68,1.12,1.52S214.27,21.77,213.65,21.77Z"/><path class="cls-2" d="M4.6,13.36H16.12v5.76H4.6ZM46.82,24.28a8.34,8.34,0,0,0-3.68-2.74,12.12,12.12,0,0,0-4.55-.92,12.32,12.32,0,0,0-4.55.92,8.45,8.45,0,0,0-3.64,2.74,8.19,8.19,0,0,0-2.71,3.63,11.85,11.85,0,0,0-.92,4.55A10.9,10.9,0,0,0,27.69,37,11.1,11.1,0,0,0,30.4,41,10.82,10.82,0,0,0,34,43.4a12.12,12.12,0,0,0,4.55.92,11.93,11.93,0,0,0,4.55-.92A10.62,10.62,0,0,0,46.82,41,11.1,11.1,0,0,0,49.53,37a10.9,10.9,0,0,0,.92-4.58,11.85,11.85,0,0,0-.92-4.55,8.19,8.19,0,0,0-2.71-3.63Zm-8.23-9.42a16.27,16.27,0,0,1,6.68,1.53h0A23.82,23.82,0,0,1,51.08,20h0a23.68,23.68,0,0,1,3.63,5.76h0a15.58,15.58,0,0,1,0,13.34h0a19.36,19.36,0,0,1-3.63,5.79h0a24.44,24.44,0,0,1-5.81,3.65h0a16.58,16.58,0,0,1-6.68,1.5,16.85,16.85,0,0,1-6.69-1.5,24.15,24.15,0,0,1-5.76-3.65h0a19.36,19.36,0,0,1-3.63-5.79h0A16.25,16.25,0,0,1,21,32.46a16.31,16.31,0,0,1,1.55-6.66h0A23.68,23.68,0,0,1,26.14,20h0a23.54,23.54,0,0,1,5.76-3.65h0a16.54,16.54,0,0,1,6.69-1.53ZM4.26,8.5A4.43,4.43,0,0,0,0,13.05V51.9a4.75,4.75,0,0,0,4.89,4.55H72.33a4.74,4.74,0,0,0,4.84-4.55V13.05A4.39,4.39,0,0,0,72.91,8.5H71.7l-.87-5.45a3.65,3.65,0,0,0-3.68-3H44.06a3.82,3.82,0,0,0-3.63,3.05L39.51,8.5H4.26Z"/><rect class="cls-1" x="100.7" y="26.72" width="16.38" height="3"/><rect class="cls-1" x="107.39" y="20.04" width="3" height="16.38"/></svg>