<svg id="Layer_1" data-name="Layer 1" xmlns="http://www.w3.org/2000/svg" viewBox="0 0 225.44 56.45"><defs><style>.cls-1{fill:#565656;}</style></defs><path class="cls-1" d="M36.16,30.07h-20a2.91,2.91,0,0,1-2.91-2.91V21.73a2.91,2.91,0,0,1,2.91-2.91H60.89a2.91,2.91,0,0,1,2.91,2.91v4.92a1,1,0,1,1-1.91,0V21.73a1,1,0,0,0-1-1H16.2a1,1,0,0,0-1,1v5.43a1,1,0,0,0,1,1h20a1,1,0,1,1,0,1.91Z"/><path class="cls-1" d="M36.16,30.45h-20a3.29,3.29,0,0,1-3.29-3.29V21.73a3.29,3.29,0,0,1,3.29-3.29H60.89a3.29,3.29,0,0,1,3.29,3.29v4.92a1.34,1.34,0,0,1-2.68,0V21.73a.61.61,0,0,0-.61-.61H16.2a.61.61,0,0,0-.62.61v5.43a.62.62,0,0,0,.62.62h20a1.34,1.34,0,1,1,0,2.67ZM16.2,19.2a2.53,2.53,0,0,0-2.53,2.53v5.43a2.53,2.53,0,0,0,2.53,2.53h20a.58.58,0,0,0,0-1.15h-20a1.38,1.38,0,0,1-1.38-1.38V21.73a1.37,1.37,0,0,1,1.38-1.37H60.89a1.37,1.37,0,0,1,1.38,1.37v4.92a.57.57,0,0,0,.57.58.58.58,0,0,0,.58-.58V21.73a2.53,2.53,0,0,0-2.53-2.53Z"/><path class="cls-1" d="M22.06,56.07a4.93,4.93,0,0,1-4.93-4.93v-22a1,1,0,0,1,1-.95H36.16a1,1,0,1,1,0,1.91H19.05V51.14a3,3,0,0,0,3,3,1,1,0,0,1,0,1.92Z"/><path class="cls-1" d="M22.06,56.45a5.31,5.31,0,0,1-5.31-5.31v-22a1.34,1.34,0,0,1,1.34-1.33H36.16a1.34,1.34,0,1,1,0,2.67H19.43V51.14a2.63,2.63,0,0,0,2.63,2.63,1.34,1.34,0,0,1,0,2.68Zm-4-27.91a.58.58,0,0,0-.58.57v22a4.55,4.55,0,0,0,4.55,4.55.58.58,0,1,0,0-1.16,3.39,3.39,0,0,1-3.39-3.39V29.69H36.16a.58.58,0,0,0,0-1.15Z"/><path class="cls-1" d="M33.75,56.07a1,1,0,0,1-1-1v-26a1,1,0,0,1,1.92,0v26A1,1,0,0,1,33.75,56.07Z"/><path class="cls-1" d="M33.75,56.45a1.34,1.34,0,0,1-1.34-1.34v-26a1.34,1.34,0,0,1,2.68,0v26A1.34,1.34,0,0,1,33.75,56.45Zm0-27.91a.58.58,0,0,0-.58.57v26a.58.58,0,0,0,1.16,0v-26A.58.58,0,0,0,33.75,28.54Z"/><path class="cls-1" d="M36.16,30.07H32a1,1,0,0,1-1-1V19.78a1,1,0,0,1,1-1H45.14a1,1,0,0,1,1,1v6.87a1,1,0,0,1-1.92,0V20.74H32.91v7.42h3.25a1,1,0,1,1,0,1.91Z"/><path class="cls-1" d="M36.16,30.45H32a1.34,1.34,0,0,1-1.34-1.34V19.78A1.34,1.34,0,0,1,32,18.44H45.14a1.34,1.34,0,0,1,1.34,1.34v6.87a1.34,1.34,0,1,1-2.68,0V21.12H33.29v6.66h2.87a1.34,1.34,0,1,1,0,2.67ZM32,19.2a.58.58,0,0,0-.58.58v9.33a.58.58,0,0,0,.58.58h4.21a.58.58,0,0,0,0-1.15H32.53V20.36h12v6.29a.58.58,0,0,0,1.16,0V19.78a.58.58,0,0,0-.58-.58Z"/><path class="cls-1" d="M63,56.07H22.85a1,1,0,0,1,0-1.92H63a1,1,0,0,1,0,1.92Z"/><path class="cls-1" d="M63,56.45H22.85a1.35,1.35,0,0,1,0-2.68H63a1.35,1.35,0,0,1,0,2.68ZM22.85,54.53c-.22,0-.41.27-.41.58s.19.58.41.58H63c.22,0,.41-.27.41-.58s-.19-.58-.41-.58Z"/><path class="cls-1" d="M71.15,37.73H39.63a2.34,2.34,0,0,1-2.34-2.33V31.57a2.34,2.34,0,0,1,2.34-2.34H71.15a2.33,2.33,0,0,1,2.33,2.34V35.4A2.33,2.33,0,0,1,71.15,37.73ZM39.63,31.15a.42.42,0,0,0-.42.42V35.4a.42.42,0,0,0,.42.42H71.15a.42.42,0,0,0,.42-.42V31.57a.42.42,0,0,0-.42-.42Z"/><path class="cls-1" d="M71.15,38.11H39.63a2.72,2.72,0,0,1-2.72-2.71V31.57a2.72,2.72,0,0,1,2.72-2.72H71.15a2.72,2.72,0,0,1,2.72,2.72V35.4A2.72,2.72,0,0,1,71.15,38.11Zm-31.52-8.5a2,2,0,0,0-2,2V35.4a2,2,0,0,0,2,2H71.15a2,2,0,0,0,1.95-2V31.57a2,2,0,0,0-1.95-2ZM71.15,36.2H39.63a.8.8,0,0,1-.8-.8V31.57a.8.8,0,0,1,.8-.8H71.15a.8.8,0,0,1,.8.8V35.4A.8.8,0,0,1,71.15,36.2ZM39.63,31.53a0,0,0,0,0,0,0V35.4l31.56,0,0-3.87Z"/><path class="cls-1" d="M67,56.07H43.76A3.77,3.77,0,0,1,40,52.31V36.77a1,1,0,0,1,1-1H69.81a1,1,0,0,1,1,1V52.31A3.76,3.76,0,0,1,67,56.07ZM41.92,37.73V52.31a1.84,1.84,0,0,0,1.84,1.84H67a1.84,1.84,0,0,0,1.84-1.84V37.73Z"/><path class="cls-1" d="M67,56.45H43.76a4.15,4.15,0,0,1-4.14-4.14V36.77A1.34,1.34,0,0,1,41,35.44H69.81a1.34,1.34,0,0,1,1.34,1.33V52.31A4.15,4.15,0,0,1,67,56.45ZM41,36.2a.58.58,0,0,0-.58.57V52.31a3.39,3.39,0,0,0,3.38,3.38H67a3.38,3.38,0,0,0,3.38-3.38V36.77a.58.58,0,0,0-.58-.57ZM67,54.53H43.76a2.22,2.22,0,0,1-2.22-2.22v-15h27.7v15A2.22,2.22,0,0,1,67,54.53ZM42.3,38.11v14.2a1.46,1.46,0,0,0,1.46,1.46H67a1.46,1.46,0,0,0,1.46-1.46V38.11Z"/><path class="cls-1" d="M58.77,56.07H52a1,1,0,0,1-1-1V36.77a.94.94,0,0,1,1-1h6.77a1,1,0,0,1,1,1V55.11A1,1,0,0,1,58.77,56.07ZM53,54.15h4.85V37.73H53Z"/><path class="cls-1" d="M58.77,56.45H52a1.35,1.35,0,0,1-1.34-1.34V36.77A1.34,1.34,0,0,1,52,35.44h6.77a1.34,1.34,0,0,1,1.34,1.33V55.11A1.34,1.34,0,0,1,58.77,56.45ZM52,36.2a.58.58,0,0,0-.57.57V55.11a.58.58,0,0,0,.57.58h6.77a.58.58,0,0,0,.58-.58V36.77a.58.58,0,0,0-.58-.57Zm6.19,18.33H52.58V37.35h5.61Zm-4.85-.76h4.09V38.11H53.34Z"/><path class="cls-1" d="M60,37.73H50.73a1,1,0,0,1-.95-1V30.19a1,1,0,0,1,.95-1H60a1,1,0,0,1,1,1v6.58A1,1,0,0,1,60,37.73Zm-8.35-1.91h7.39V31.15H51.69Z"/><path class="cls-1" d="M60,38.11h-9.3a1.34,1.34,0,0,1-1.34-1.34V30.19a1.34,1.34,0,0,1,1.34-1.34H60a1.34,1.34,0,0,1,1.34,1.34v6.58A1.34,1.34,0,0,1,60,38.11Zm-9.3-8.5a.58.58,0,0,0-.58.58v6.58a.58.58,0,0,0,.58.58H60a.58.58,0,0,0,.58-.58V30.19a.58.58,0,0,0-.58-.58Zm8.72,6.59H51.31V30.77h8.15Zm-7.39-.76H58.7V31.53H52.07Z"/><path class="cls-1" d="M58.27,7.73H35.93A1.94,1.94,0,0,1,34,5.8V3.08a1.93,1.93,0,0,1,1.94-1.93H58.27a1.93,1.93,0,0,1,1.94,1.93V5.8A1.94,1.94,0,0,1,58.27,7.73ZM35.93,3.06l0,2.74H58.27l0-2.73S35.93,3.06,35.93,3.06Z"/><path class="cls-1" d="M58.27,8.11H35.93A2.32,2.32,0,0,1,33.61,5.8V3.08A2.31,2.31,0,0,1,35.93.77H58.27a2.31,2.31,0,0,1,2.32,2.31V5.8A2.32,2.32,0,0,1,58.27,8.11ZM35.93,1.53a1.55,1.55,0,0,0-1.56,1.55V5.8a1.56,1.56,0,0,0,1.56,1.55H58.27A1.56,1.56,0,0,0,59.83,5.8V3.08a1.55,1.55,0,0,0-1.56-1.55ZM58.65,6.2l-23.12,0,0-3.5h.38c22.5,0,22.5,0,22.63.14l.11.11ZM36.29,5.42h21.6l0-2-21.6,0Z"/><path class="cls-1" d="M55.34,20.73H38.86a3,3,0,0,1-3-2.94v-11a1,1,0,0,1,1-1H57.33a1,1,0,0,1,1,1v11A3,3,0,0,1,55.34,20.73Zm-17.51-13V17.79a1,1,0,0,0,1,1H55.34a1,1,0,0,0,1-1V7.73Z"/><path class="cls-1" d="M55.34,21.11H38.86a3.33,3.33,0,0,1-3.33-3.32v-11a1.35,1.35,0,0,1,1.34-1.34H57.33a1.35,1.35,0,0,1,1.34,1.34v11A3.33,3.33,0,0,1,55.34,21.11ZM36.87,6.2a.57.57,0,0,0-.57.57v11a2.56,2.56,0,0,0,2.56,2.56H55.34a2.56,2.56,0,0,0,2.56-2.56v-11a.57.57,0,0,0-.57-.57Zm18.47,13H38.86a1.41,1.41,0,0,1-1.41-1.4V7.35h19.3V17.79A1.41,1.41,0,0,1,55.34,19.19ZM38.21,8.11v9.68a.65.65,0,0,0,.65.64H55.34a.65.65,0,0,0,.65-.64V8.11Z"/><path class="cls-1" d="M49.5,20.73H44.7a1,1,0,0,1-1-1v-13a1,1,0,0,1,1-1h4.8a1,1,0,0,1,1,1v13A1,1,0,0,1,49.5,20.73Zm-3.84-1.92h2.88V7.73H45.66Z"/><path class="cls-1" d="M49.5,21.11H44.7a1.34,1.34,0,0,1-1.34-1.34v-13A1.35,1.35,0,0,1,44.7,5.43h4.8a1.35,1.35,0,0,1,1.34,1.34v13A1.34,1.34,0,0,1,49.5,21.11ZM44.7,6.2a.57.57,0,0,0-.58.57v13a.58.58,0,0,0,.58.58h4.8a.58.58,0,0,0,.58-.58v-13a.57.57,0,0,0-.58-.57Zm4.22,13H45.28V7.35h3.64ZM46,18.43h2.12V8.11H46Z"/><path class="cls-1" d="M50.4,7.73H43.8a1,1,0,0,1-1-1V2.1a1,1,0,0,1,1-1h6.6a1,1,0,0,1,1,1V6.77A1,1,0,0,1,50.4,7.73ZM44.76,5.81h4.68V3.06H44.76Z"/><path class="cls-1" d="M50.4,8.11H43.8a1.34,1.34,0,0,1-1.34-1.34V2.11A1.34,1.34,0,0,1,43.8.77h6.6a1.34,1.34,0,0,1,1.34,1.34V6.77A1.34,1.34,0,0,1,50.4,8.11ZM43.8,1.53a.58.58,0,0,0-.58.58V6.77a.58.58,0,0,0,.58.58h6.6A.58.58,0,0,0,51,6.77V2.11a.58.58,0,0,0-.58-.58Zm6,4.67H44.38V2.68h5.44Zm-4.68-.77h3.92v-2H45.14Z"/><path class="cls-1" d="M59.25,20.73H35a1,1,0,0,1,0-1.92h24.3a1,1,0,1,1,0,1.92Z"/><path class="cls-1" d="M59.25,21.11H35a1.34,1.34,0,0,1,0-2.68h24.3a1.34,1.34,0,1,1,0,2.68ZM35,19.19a.58.58,0,1,0,0,1.16h24.3a.58.58,0,1,0,0-1.16Z"/><path class="cls-1" d="M103.81,37.29a1.27,1.27,0,0,1-.47-.09,1.22,1.22,0,0,1-.75-1.12V32.42h-9a1.21,1.21,0,0,1,0-2.42h10.25A1.21,1.21,0,0,1,105,31.21v1.94l4.83-4.83L105,23.49v2a1.21,1.21,0,0,1-1.21,1.21H93.56a1.22,1.22,0,0,1,0-2.43h9V20.56a1.22,1.22,0,0,1,.75-1.12,1.24,1.24,0,0,1,1.33.27l7.75,7.75a1.21,1.21,0,0,1,0,1.72l-7.75,7.76A1.24,1.24,0,0,1,103.81,37.29Z"/><path class="cls-1" d="M203.67,8.59l2.63-1.32a.82.82,0,0,0,.39-.39L208,4.25a.87.87,0,0,1,1.55,0l1.32,2.63a.87.87,0,0,0,.39.39l2.63,1.32a.87.87,0,0,1,0,1.56l-2.63,1.32a.87.87,0,0,0-.39.39l-1.32,2.63a.87.87,0,0,1-1.55,0l-1.32-2.63a.82.82,0,0,0-.39-.39l-2.63-1.32A.87.87,0,0,1,203.67,8.59Z"/><path class="cls-1" d="M120.4,40.75l2.21-1.1a.75.75,0,0,0,.33-.33l1.11-2.21a.72.72,0,0,1,1.3,0l1.11,2.21a.75.75,0,0,0,.33.33l2.21,1.1a.73.73,0,0,1,0,1.31l-2.21,1.11a.75.75,0,0,0-.33.33l-1.11,2.21a.72.72,0,0,1-1.3,0l-1.11-2.21a.75.75,0,0,0-.33-.33l-2.21-1.11A.73.73,0,0,1,120.4,40.75Z"/><path class="cls-1" d="M130.47,46l1.29-.64a.48.48,0,0,0,.2-.2l.64-1.29a.43.43,0,0,1,.77,0l.65,1.29a.46.46,0,0,0,.19.2l1.3.64a.43.43,0,0,1,0,.77l-1.3.65a.44.44,0,0,0-.19.19l-.65,1.3a.43.43,0,0,1-.77,0l-.64-1.3a.46.46,0,0,0-.2-.19l-1.29-.65A.43.43,0,0,1,130.47,46Z"/><path class="cls-1" d="M214,14l1.4-.69a.51.51,0,0,0,.2-.21l.7-1.39a.46.46,0,0,1,.82,0l.7,1.39a.45.45,0,0,0,.2.21l1.39.69a.47.47,0,0,1,0,.83l-1.39.69a.45.45,0,0,0-.2.21l-.7,1.39a.46.46,0,0,1-.82,0l-.7-1.39a.51.51,0,0,0-.2-.21L214,14.8A.47.47,0,0,1,214,14Z"/><path class="cls-1" d="M217.14,4.89,218.93,4a.62.62,0,0,0,.26-.27l.9-1.79a.59.59,0,0,1,1,0l.9,1.79a.62.62,0,0,0,.26.27l1.79.89a.59.59,0,0,1,0,1.06l-1.79.89a.62.62,0,0,0-.26.27l-.9,1.79a.59.59,0,0,1-1,0l-.9-1.79a.62.62,0,0,0-.26-.27L217.14,6A.59.59,0,0,1,217.14,4.89Z"/><path class="cls-1" d="M166.57,25.48a10.25,10.25,0,0,1-10-10.43,10,10,0,1,1,20.08,0A10.26,10.26,0,0,1,166.57,25.48Zm0-17.72a7.12,7.12,0,0,0-6.91,7.29,6.92,6.92,0,1,0,13.81,0A7.11,7.11,0,0,0,166.57,7.76Z"/><path class="cls-1" d="M176.9,56.45H156.57a3,3,0,0,1-3.06-2.94V44C141,41.08,132.36,33.54,128.36,27.3a7.48,7.48,0,0,1,2-10.16,8.42,8.42,0,0,1,10.62.58,52.68,52.68,0,0,0,17.3,11h16.6a52.89,52.89,0,0,0,17.3-11,8.42,8.42,0,0,1,10.61-.58,7.47,7.47,0,0,1,2,10.16c-3.94,6.17-12.48,13.64-24.81,16.58v9.63A3,3,0,0,1,176.9,56.45Zm-20.25-3.14h20.17V42.63a1.58,1.58,0,0,1,1.25-1.54c12.05-2.52,20.33-9.65,24.06-15.48a4.37,4.37,0,0,0-1.2-5.94h0a5.26,5.26,0,0,0-6.62.34,55.72,55.72,0,0,1-18.66,11.71,1.48,1.48,0,0,1-.51.09H158a1.54,1.54,0,0,1-.52-.09A55.74,55.74,0,0,1,138.82,20a5.25,5.25,0,0,0-6.62-.33,4.39,4.39,0,0,0-1.2,5.95c3.78,5.9,12.17,13.09,24.39,15.54a1.57,1.57,0,0,1,1.26,1.54Z"/><path class="cls-1" d="M78.79,24.21A2,2,0,0,1,77,23.07l-.41-.84a.17.17,0,0,0-.16-.08l-.92.14a2,2,0,0,1-1.72-3.49l.67-.65a.14.14,0,0,0,0-.17l-.41-.84a2,2,0,0,1,2.78-2.71l.82.44a.15.15,0,0,0,.18,0l.67-.65A2,2,0,0,1,81.93,16l-.16.92a.15.15,0,0,0,.08.16l.83.43A2,2,0,0,1,82,21.34l-.92.13a.15.15,0,0,0-.13.12l-.16.92a2,2,0,0,1-1.72,1.68Zm-2.36-3.95a2,2,0,0,1,1.82,1.14l.41.83a.14.14,0,0,0,.16.09.14.14,0,0,0,.13-.13l.16-.92a2,2,0,0,1,1.72-1.67l.92-.13a.15.15,0,0,0,.13-.13.15.15,0,0,0-.08-.16L81,18.75a2,2,0,0,1-1.06-2.15l.16-.92a.13.13,0,0,0-.08-.16.13.13,0,0,0-.18,0l-.66.65a2,2,0,0,1-2.38.34L76,16.11a.13.13,0,0,0-.18,0,.15.15,0,0,0,0,.18l.41.83a2,2,0,0,1-.4,2.37l-.67.65a.12.12,0,0,0,0,.17.15.15,0,0,0,.16.09l.92-.14Z"/><path class="cls-1" d="M78.79,24.46a2.26,2.26,0,0,1-2-1.28l-.38-.77-.85.12a2.27,2.27,0,0,1-2.39-1.25,2.24,2.24,0,0,1,.46-2.65l.61-.6-.38-.78a2.29,2.29,0,0,1,3.12-3l.76.4.62-.6a2.3,2.3,0,0,1,3.86,2l-.15.85.76.4a2.29,2.29,0,0,1-.74,4.29l-.85.13-.14.84a2.25,2.25,0,0,1-1.93,1.88ZM76.41,21.9a.41.41,0,0,1,.37.22l.42.84a1.72,1.72,0,0,0,1.86,1,1.77,1.77,0,0,0,1.51-1.47l.15-.92a.42.42,0,0,1,.34-.33l.92-.13a1.79,1.79,0,0,0,.58-3.36l-.82-.43a.39.39,0,0,1-.21-.42l.15-.92a1.79,1.79,0,0,0-3-1.59L78,15a.41.41,0,0,1-.47.07l-.82-.43A1.79,1.79,0,0,0,74.27,17l.41.84a.38.38,0,0,1-.08.46l-.66.65a1.77,1.77,0,0,0-.36,2.08,1.79,1.79,0,0,0,1.86,1l.92-.14Zm4.72-.18Zm-6.89-3.63Zm3.53-3.44Zm1,7.92a.38.38,0,0,1-.36-.23L78,21.51a1.78,1.78,0,0,0-1.87-1l-.92.13a.37.37,0,0,1-.41-.22.36.36,0,0,1,.08-.46l.66-.65a1.8,1.8,0,0,0,.36-2.08l-.41-.83A.37.37,0,0,1,75.6,16a.38.38,0,0,1,.47-.06l.82.43A1.79,1.79,0,0,0,79,16l.67-.65a.38.38,0,0,1,.47-.07.39.39,0,0,1,.21.42l-.16.92a1.79,1.79,0,0,0,.93,1.89l.82.43a.38.38,0,0,1,.21.42.37.37,0,0,1-.33.33l-.93.14a1.79,1.79,0,0,0-1.51,1.47l-.15.92a.38.38,0,0,1-.34.32ZM76.43,20a2.28,2.28,0,0,1,2,1.28l.27.56.11-.62a2.29,2.29,0,0,1,1.93-1.88l.62-.09L80.86,19a2.28,2.28,0,0,1-1.2-2.41l.11-.62-.45.43a2.26,2.26,0,0,1-2.66.39l-.56-.29.28.56a2.3,2.3,0,0,1-.46,2.66l-.45.43.62-.09Z"/><path class="cls-1" d="M6.55,15.91l-.25,0a2.11,2.11,0,0,1-1.88-1.71l-.21-1A.28.28,0,0,0,4,13l-1-.11a2.17,2.17,0,0,1-.84-4L3,8.29A.28.28,0,0,0,3.13,8L2.91,7a2.17,2.17,0,0,1,3.58-2l.77.7a.27.27,0,0,0,.32,0l.9-.51a2.16,2.16,0,0,1,3,2.76l-.42.95a.28.28,0,0,0,.07.32l.76.7a2.16,2.16,0,0,1-1.69,3.75l-1-.11a.28.28,0,0,0-.28.16l-.43,1A2.11,2.11,0,0,1,6.55,15.91ZM5,6.25a.33.33,0,0,0-.14,0,.27.27,0,0,0-.14.3l.22,1A2.16,2.16,0,0,1,3.93,9.93l-.9.51a.27.27,0,0,0-.13.3.26.26,0,0,0,.24.22l1,.11a2.17,2.17,0,0,1,1.89,1.71l.21,1a.27.27,0,0,0,.52.06l.43-.95a2.16,2.16,0,0,1,2.21-1.27l1,.12a.26.26,0,0,0,.28-.17.24.24,0,0,0-.06-.31l-.77-.7a2.15,2.15,0,0,1-.52-2.49l.42-1a.27.27,0,0,0-.06-.32.27.27,0,0,0-.33,0l-.9.52A2.14,2.14,0,0,1,6,7l-.77-.69A.24.24,0,0,0,5,6.25Z"/><path class="cls-1" d="M6.55,16.16l-.27,0a2.38,2.38,0,0,1-2.11-1.9l-.21-1-1-.14A2.41,2.41,0,0,1,2,8.59l.9-.52-.2-1A2.38,2.38,0,0,1,3.83,4.44a2.38,2.38,0,0,1,2.83.3l.77.7.93-.51A2.42,2.42,0,0,1,11.76,8L11.34,9l.77.73a2.41,2.41,0,0,1-1.88,4.19l-1-.11-.46,1A2.37,2.37,0,0,1,6.55,16.16ZM5,4.61a2,2,0,0,0-1,.26,1.89,1.89,0,0,0-.92,2.05l.21,1a.51.51,0,0,1-.25.56L2.22,9A1.92,1.92,0,0,0,3,12.59l1,.11a.51.51,0,0,1,.46.42l.21,1a1.92,1.92,0,0,0,3.63.4l.42-.95a.55.55,0,0,1,.54-.31l1,.12a1.92,1.92,0,0,0,1.5-3.33L11,9.36a.52.52,0,0,1-.13-.6l.43-1a1.92,1.92,0,0,0-2.7-2.45l-.9.52a.54.54,0,0,1-.62-.07l-.77-.7A1.9,1.9,0,0,0,5,4.61Zm1.5,9.66h0A.52.52,0,0,1,6,13.85l-.21-1a1.91,1.91,0,0,0-1.67-1.51l-1-.11a.51.51,0,0,1-.46-.42.5.5,0,0,1,.26-.56l.9-.52a1.91,1.91,0,0,0,.92-2.05l-.21-1a.5.5,0,0,1,.25-.57.53.53,0,0,1,.62.07l.77.7a1.9,1.9,0,0,0,2.24.24l.9-.51a.5.5,0,0,1,.61.06.51.51,0,0,1,.13.61l-.43.95a1.9,1.9,0,0,0,.47,2.2l.76.7a.51.51,0,0,1,.13.61.49.49,0,0,1-.54.3l-1-.11A1.9,1.9,0,0,0,7.45,13L7,14A.51.51,0,0,1,6.54,14.27ZM5,6.5l.18,1a2.4,2.4,0,0,1-1.16,2.59l-.91.52,1.05.16a2.41,2.41,0,0,1,2.1,1.91l.21,1L7,12.81A2.39,2.39,0,0,1,9.45,11.4l1,.11-.75-.75A2.4,2.4,0,0,1,9.16,8L9.58,7l-.93.48a2.43,2.43,0,0,1-2.83-.31Z"/></svg>