<svg id="Layer_1" data-name="Layer 1" xmlns="http://www.w3.org/2000/svg" viewBox="0 0 225.44 56.45"><defs><style>.cls-1,.cls-2{fill:#565656;}.cls-2{font-size:17.99px;font-family:Helvetica-Bold, Helvetica;font-weight:700;letter-spacing:0.07em;}</style></defs><path class="cls-1" d="M222,54a1.76,1.76,0,0,1-1.22-.47l-2.49-2.24L216.79,53a2.17,2.17,0,0,1-3.61-.59l-5-11.63a2.18,2.18,0,0,1,2.65-2.94l12.08,3.83h0a2.13,2.13,0,0,1,1.44,1.5,2.15,2.15,0,0,1-.48,2l-1.51,1.67,2.48,2.23a1.85,1.85,0,0,1,.14,2.59l-1.57,1.74a1.86,1.86,0,0,1-1.27.6Zm.45-2.33h0Zm-4.25-3.39a1.19,1.19,0,0,1,.83.32L222,51.26l.67-.75-2.91-2.62a1.26,1.26,0,0,1-.09-1.77l2-2.22-10.91-3.46L215.27,51l2-2.23A1.27,1.27,0,0,1,218.21,48.31Zm4.87,1.7Z"/><text class="cls-2" transform="translate(58.63 33.81)">/efavormartfans</text><path class="cls-1" d="M211.62,48.81a8.36,8.36,0,0,1-3.67.86H48.47V6H208a8.33,8.33,0,0,1,8.32,8.32V39.58l2.44.77v-26A10.78,10.78,0,0,0,208,3.6H10.76A10.78,10.78,0,0,0,0,14.36v27A10.78,10.78,0,0,0,10.76,52.11H208A10.65,10.65,0,0,0,212.59,51Zm-180.07-29h-.29c-.72,0-1.43,0-2.14,0-1,0-1.7.41-1.74,1.63,0,.89,0,2.94,0,2.94h4.08c-.18,1.42-.36,2.78-.54,4.16H27.37V39h-4.3V28.55H19.54V24.41h3.55V24.1c0-.83,0-1.66,0-2.49A10.55,10.55,0,0,1,23.22,20a4.62,4.62,0,0,1,1.86-3.1,5.44,5.44,0,0,1,3.1-1c.73,0,1.46,0,2.19.06.4,0,.8.07,1.18.11Z"/></svg>