<svg xmlns="http://www.w3.org/2000/svg" viewBox="0 0 160.07 17.85"><style>.st0{fill:#7a7a7a}</style><g id="Frame"><path class="st0" d="M13.17 13.52c-.1-.01-.18.01-.23.05-.03.03-.05.07-.05.1-.15 1.03-.48 1.88-.99 2.51-.51.62-1.12.94-1.83.94H7.52c-.72 0-2.23-.05-2.54-.14-.3-.08-.5-.24-.6-.46-.12-.23-.18-.62-.18-1.14V9.4h4.48c.86 0 1.46.16 1.79.47.33.31.5.88.5 1.68 0 .1.09.16.27.16s.27-.05.27-.16l-.03-1.31c-.02-.25-.03-.64-.03-1.19l.03-2.2c0-.1-.09-.16-.27-.16s-.27.05-.27.16c0 .67-.16 1.14-.47 1.41-.31.27-.89.41-1.71.41H4.2V3.32c0-.54.06-.94.17-1.18.11-.23.31-.39.62-.47.32-.09 1.84-.14 2.53-.14h1.92c.78 0 1.42.27 1.9.8s.72 1.27.72 2.18c0 .04.02.18.25.18.24 0 .25-.14.25-.19l-.06-3.36c0-.22-.13-.35-.35-.35h-12C.05.81 0 .9 0 1.07c0 .18.05.27.16.27.72 0 .88.05 1.22.15.31.09.52.25.63.49.11.25.17.64.17 1.18V15.5c0 .54-.06.94-.17 1.2-.11.24-.32.4-.63.49-.33.09-.5.14-1.22.14-.11-.02-.16.07-.16.25s.05.27.16.27h12.48c.2 0 .33-.04.42-.13.08-.08.13-.22.13-.39 0-1.23.08-2.44.25-3.61-.01-.07-.05-.18-.27-.2z"/><path d="M85.95 13.52c-.1-.01-.18.01-.23.05-.03.03-.05.07-.05.1-.15 1.03-.48 1.88-.99 2.51-.51.62-1.12.94-1.83.94H80.3c-.72 0-2.23-.05-2.54-.14-.3-.08-.5-.24-.6-.46-.11-.23-.17-.62-.17-1.14V9.4h4.49c.86 0 1.46.16 1.79.47.33.31.5.88.5 1.68 0 .1.09.16.27.16s.27-.05.27-.16l-.03-1.31c-.02-.25-.03-.64-.03-1.19l.03-2.2c0-.1-.09-.16-.27-.16s-.27.05-.27.16c0 .67-.16 1.14-.47 1.41-.31.27-.89.41-1.71.41h-4.57V3.32c0-.54.06-.94.17-1.18.11-.23.31-.39.62-.47.32-.09 1.84-.14 2.53-.14h1.92c.78 0 1.42.27 1.9.8s.72 1.27.72 2.18c0 .06.02.18.25.18s.25-.14.25-.19l-.06-3.36c0-.22-.13-.35-.35-.35h-12c-.16 0-.16.2-.16.27s0 .27.16.27c.72 0 .88.05 1.22.15.32.09.52.25.63.49.11.25.17.64.17 1.18v12.34c0 .54-.06.94-.17 1.2-.11.24-.31.4-.63.49-.32.09-.5.14-1.22.14-.16 0-.16.2-.16.27s0 .27.16.27h12.48c.2 0 .33-.04.42-.13.08-.08.12-.21.12-.39 0-1.23.08-2.44.25-3.61-.01-.08-.04-.19-.26-.21zM33.38 17.31c-.71 0-1.24-.05-1.57-.14-.32-.08-.53-.25-.65-.49-.12-.25-.18-.65-.18-1.19V3.16c0-.54.06-.93.18-1.18.12-.24.33-.4.65-.49.33-.1.86-.15 1.57-.15.05 0 .18-.03.18-.27 0-.24-.13-.27-.18-.27l-1.34.03c-.76.04-1.39.06-1.86.06-.51 0-1.15-.02-1.92-.06L26.95.8c-.05 0-.18.03-.18.27 0 .24.13.27.18.27.72 0 .88.05 1.22.16.31.1.53.27.63.52.11.25.17.66.17 1.2v5.46h-9.54V3.21c0-.54.06-.94.17-1.2.11-.24.32-.41.64-.52.33-.11.86-.16 1.57-.16.1 0 .16-.09.16-.27 0-.18-.05-.27-.16-.27L20.5.82c-.76.04-1.41.06-1.91.06-.45 0-1.07-.02-1.83-.06L15.4.81c-.1 0-.16.09-.16.27 0 .18.05.27.16.27.72 0 .88.05 1.22.15.32.09.52.25.63.49.11.24.17.64.17 1.18v12.34c0 .54-.06.94-.18 1.19-.12.24-.33.4-.64.49-.33.09-.5.14-1.22.14-.16 0-.16.2-.16.27s0 .27.16.27c.59 0 1.06-.01 1.39-.03l1.83-.03 1.89.03c.33.02.78.03 1.34.03.1 0 .16-.09.16-.27 0-.18-.05-.27-.16-.27-.73 0-1.26-.05-1.59-.13-.31-.09-.51-.24-.62-.47-.11-.25-.17-.65-.17-1.21V9.4h9.54v6.1c0 .56-.06.96-.17 1.21-.11.23-.31.39-.62.47-.34.09-.52.13-1.23.13-.05 0-.18.03-.18.27 0 .24.13.27.18.27.56 0 1-.01 1.31-.03l1.92-.03 1.86.03c.31.02.77.03 1.34.03.05 0 .18-.03.18-.27-.01-.24-.14-.27-.2-.27z"/><path d="M49.37 5.06a8.277 8.277 0 00-2.81-3.3C45.34.93 43.91.51 42.31.51c-1.43 0-2.86.35-4.23 1.04-1.38.69-2.52 1.74-3.39 3.11-.92 1.43-1.32 2.9-1.32 4.76 0 1.54.28 2.72 1 4.23.67 1.39 1.62 2.51 2.85 3.32 1.22.81 2.64 1.23 4.21 1.23 1.59 0 3.08-.42 4.44-1.24a9.094 9.094 0 003.26-3.37c.88-1.54 1.22-2.76 1.22-4.36 0-1.49-.29-2.73-.98-4.17zm-1.12 4.93c0 1.52-.22 2.61-.79 3.88-.52 1.16-1.23 2.05-2.13 2.65-.89.6-1.91.9-3.02.9-1.32 0-2.51-.41-3.54-1.23-1.12-.88-1.88-1.66-2.43-3.03-.58-1.42-.87-3-.87-4.7 0-2.23.48-3.83 1.54-5.19 1.02-1.3 2.45-1.96 4.27-1.96 1.38 0 2.61.38 3.65 1.12 1.04.75 1.87 1.8 2.44 3.14.61 1.4.88 2.77.88 4.42zM71.3.81c-.38 0-.68.01-.86.03l-1.25.03c-.29 0-.52-.01-.68-.03-.18-.02-.3-.03-.37-.03a.79.79 0 00-.52.22c-.17.14-.3.32-.4.54L61.08 15.1 54.91 2.31c-.3-.61-.53-1.02-.68-1.2-.17-.2-.4-.3-.69-.3-.11 0-.27.01-.48.03-.2.02-.45.03-.74.03s-.53-.01-.72-.03l-.95-.03c-.15 0-.15.2-.15.27s0 .27.15.27c.88 0 1.6.31 2.15.91l-.28 12.6c-.02.92-.18 1.56-.49 1.92-.3.35-.83.53-1.58.53-.1 0-.16.09-.16.27 0 .18.05.27.16.27.48 0 .85-.01 1.09-.03l1.36-.03 1.5.03c.28.02.68.03 1.2.03.1 0 .16-.09.16-.27 0-.18-.05-.27-.16-.27-.87 0-1.48-.18-1.79-.52-.31-.35-.46-1-.45-1.93l.21-11.27 6.62 14.01.02.03c.09.09.2.14.32.14.19 0 .27-.09.31-.17l6.31-14.01-.12 11.91c.04.54 0 .93-.09 1.18-.09.23-.27.39-.55.48-.29.1-.76.15-1.4.15-.1 0-.16.09-.16.27 0 .18.05.27.16.27.5 0 .89-.01 1.17-.03l1.72-.03 1.86.03c.33.02.79.03 1.37.03.05 0 .18-.03.18-.27 0-.24-.13-.27-.18-.27-.71 0-.88-.04-1.21-.14-.32-.09-.52-.24-.63-.47-.11-.25-.18-.65-.2-1.21l.09-12.4c-.02-.7.16-1.17.52-1.4.36-.22.64-.36 1.63-.36.1 0 .16-.09.16-.27-.01-.16-.07-.25-.17-.25z"/><path class="st0" d="M108.98.81c-.38 0-.68.01-.86.03l-1.25.03c-.29 0-.52-.01-.68-.03-.18-.02-.3-.03-.37-.03a.79.79 0 00-.52.22c-.17.14-.3.32-.4.54L98.76 15.1 92.59 2.31c-.3-.61-.53-1.02-.68-1.2-.17-.2-.4-.3-.69-.3-.11 0-.27.01-.48.03-.2.02-.45.03-.74.03s-.53-.01-.72-.03l-.95-.03c-.15 0-.15.2-.15.27s0 .27.15.27c.88 0 1.6.31 2.15.91l-.28 12.6c-.02.92-.18 1.56-.49 1.92-.3.35-.83.53-1.58.53-.1 0-.16.09-.16.27 0 .18.05.27.16.27.48 0 .85-.01 1.09-.03l1.36-.03 1.5.03c.28.02.68.03 1.2.03.1 0 .16-.09.16-.27 0-.18-.05-.27-.16-.27-.87 0-1.48-.18-1.79-.52-.31-.35-.46-1-.45-1.93l.21-11.27 6.62 14.01.02.03c.09.09.2.14.32.14.19 0 .27-.09.31-.17l6.31-14.01-.13 11.91c.04.54 0 .93-.09 1.18-.09.23-.27.39-.55.48-.29.1-.76.15-1.4.15-.1 0-.16.09-.16.27 0 .18.05.27.16.27.5 0 .89-.01 1.17-.03l1.72-.03 1.86.03c.33.02.79.03 1.37.03.05 0 .18-.03.18-.27 0-.24-.13-.27-.18-.27-.71 0-.88-.04-1.21-.14-.32-.09-.52-.24-.63-.47-.11-.25-.18-.65-.2-1.21l.09-12.4c-.02-.7.16-1.17.52-1.4.36-.22.64-.36 1.63-.36.1 0 .16-.09.16-.27-.01-.16-.06-.25-.16-.25zM127.99 17.32c-.38 0-.71-.09-.99-.28-.29-.19-.59-.52-.89-1-.3-.48-.66-1.2-1.05-2.14L119.08.6c-.02-.06-.07-.15-.23-.15-.14 0-.21.07-.26.14l-5.39 13.45c-.34.88-.66 1.56-.96 2.04-.29.47-.6.79-.92.97-.32.18-.71.27-1.18.27-.05 0-.23.02-.23.26s.17.26.23.26c.33 0 .76-.02 1.27-.06.59-.04 1.1-.06 1.52-.06.47 0 1.03.02 1.7.06.58.04 1.03.06 1.35.06.05 0 .23-.02.23-.26s-.17-.26-.23-.26c-.86 0-1.49-.12-1.89-.35-.38-.22-.57-.58-.57-1.08 0-.39.12-.91.35-1.52l1.65-3.89h5.96l2.29 4.97c.18.45.28.8.28 1.05 0 .29-.13.5-.41.62-.31.14-.56.2-1.24.2-.05 0-.2.02-.2.26s.15.26.2.26c.28 0 .7-.02 1.24-.06.6-.04 1.06-.06 1.41-.06.3 0 .77.02 1.44.06.68.04 1.18.06 1.5.06.05 0 .2-.02.2-.26s-.15-.26-.2-.26zm-6.84-7.54h-5.36l2.46-6.55 2.9 6.55zM159.83 0c-.14 0-.23.07-.26.18-.08.25-.26.41-.54.49-.3.09-.79.13-1.45.13l-1.89.03c-1.2.04-2.37.06-3.47.06-2.12 0-4-.03-5.58-.08-.91 0-1.37-.17-1.37-.51 0-.15-.1-.24-.27-.24s-.27.09-.27.24c0 .55-.05 1.39-.14 2.48-.09 1.08-.17 1.89-.25 2.41 0 .1.09.16.27.16s.27-.05.27-.14c.18-1.4.54-2.38 1.06-2.92.51-.53 1.35-.8 2.48-.8.99 0 1.68.03 2.05.08.35.05.59.18.72.39.14.21.21.62.21 1.21v12.34c0 .54-.07.94-.2 1.19-.13.24-.36.4-.73.49-.38.09-.99.14-1.81.14-.16 0-.16.2-.16.27s0 .27.16.27c.65 0 1.16-.01 1.53-.03l2.03-.03 2.14.03c.35.02.84.03 1.45.03.1 0 .16-.09.16-.27 0-.18-.05-.27-.16-.27-.82 0-1.43-.05-1.81-.14-.36-.09-.6-.25-.71-.48-.12-.24-.19-.65-.19-1.21V3.21c0-.59.07-1 .2-1.23.12-.21.37-.35.72-.41.38-.06 1.06-.1 2.01-.1.85 0 1.52.12 1.98.35.46.23.79.6.98 1.11.2.53.3 1.28.3 2.24 0 .1.09.16.27.16s.27-.05.27-.16c0-.66.03-1.53.08-2.59.05-1.05.11-1.85.17-2.38-.01-.09-.07-.2-.25-.2zM145.15 15.75l-.05.15c-.23.69-.56 1.06-.93 1.06-.81 0-1.18-.22-2.89-4.56-.69-1.72-1.39-2.42-2.11-2.68.01-.01.02-.01.03-.02 1.43-.94 2.5-2.88 2.5-4.5 0-1.09-.37-2.58-1.19-3.3-.62-.54-1.69-1.19-3.3-1.19-.52 0-1.12.03-1.79.08-.14.01-.58.02-1 .03-.38.01-.76.02-.93.03-.36.02-.74.03-1.15.03-.49 0-1.1-.02-1.83-.06l-1.34-.03c-.06 0-.18.03-.18.27 0 .24.13.27.18.27.72 0 .88.05 1.22.15.32.09.52.25.63.49.11.25.17.64.17 1.18v12.34c0 .54-.06.94-.18 1.19-.12.24-.33.4-.65.49-.35.09-.53.14-1.25.14-.1 0-.16.09-.16.27 0 .18.05.27.16.27.59 0 1.06-.01 1.39-.03l1.83-.03 1.88.03c.33.02.79.03 1.34.03.06 0 .18-.03.18-.27 0-.24-.13-.27-.18-.27-.73 0-1.26-.05-1.58-.13-.31-.09-.51-.24-.62-.47-.11-.24-.17-.65-.17-1.21v-5.01c.67.05 1.39.09 2.1.09.67-.01 1.33-.03 1.97-.14.74.3 1.41.76 1.87 1.93 1.74 4.98 2.59 5.48 4.26 5.48 1.29 0 1.77-.67 2.1-1.68l.02-.06-.35-.36zm-6.82-6.8c-.86.53-1.67.77-2.56.77-.6 0-2-.03-2.57-.07V3.21c0-.8.13-1.33.39-1.57.22-.21 1.59-.36 2.4-.36 1.28 0 2.27.32 2.95.95.72.67 1.1 2.04 1.01 3.58-.07 1.08-.53 2.47-1.62 3.14z"/></g></svg>