<svg xmlns="http://www.w3.org/2000/svg" viewBox="0 0 1451.3 1451.3" xml:space="preserve"><path d="M895.1 1442.8c-170.5 0-249.4-40.4-315.5-101.2l-.5-.5-.6-.4a126.5 126.5 0 0 1-25.4-22.4L176 893.5c-38.5-43.2-41.6-92.5-37.4-126.2a207.2 207.2 0 0 1 47.2-107.8 132.8 132.8 0 0 1 99-42.4c37.7 0 71.9 15.1 96.4 42.5l76.7 85.9V165.8c0-86.7 62.2-157.3 138.5-157.3 75.2 0 134 69.1 134 157.3v144.3l11.7-4.8c15.5-6.4 31.9-9.6 48.8-9.6 52.9 0 99.6 35.3 121.8 92l3.5 9 8.5-4.6a128.9 128.9 0 0 1 61.5-16.1c52.9 0 99.6 35.3 121.8 92l3.6 9.3 8.6-5.1c18.5-10.9 37-15.9 58.3-15.9h3a122 122 0 0 1 86.7 37.3c29.5 29.8 46.2 73.5 45.9 119.9V918c0 154.7-11 276.5-64.4 367.8a280.7 280.7 0 0 1-124.8 114.1c-59.6 28.5-136.9 42.9-229.8 42.9zM222.2 788.3a70.2 70.2 0 0 0 18.7 53.2l356.7 401.7c69.1 77.5 158.1 110.6 297.4 110.6 156.3 0 251.1-40.8 298.5-128.3 42.6-78.7 42.6-184.4 42.6-306.7v-294c0-21.8-5.3-38.4-15.8-49.4a58.1 58.1 0 0 0-41.9-18.1h-.7c-32.6.1-58.1 29.3-58.1 66.6v171.3c-2.8 23.5-18.4 39.8-38.3 39.8-21.5 0-39-20.3-39-45.3V550.4c0-22.9-12.8-62.6-60.6-66.6h-.8a52 52 0 0 0-40.2 19.6 73.4 73.4 0 0 0-15.8 47v196.9c-2.8 22.8-19.5 39.9-39 39.9-21.5 0-39-20.3-39-45.3V470.1c0-21.1-5.1-37.2-15.1-47.6a61.5 61.5 0 0 0-43.2-19c-32.8 0-57.5 28.6-57.5 66.6v213.2c-2.8 22.8-19.5 39.9-39 39.9-21.5 0-39-20.3-39-45.3V182.1c0-38-24.1-66.6-56-66.6-16.3 0-31.6 7-43.1 19.7a69.6 69.6 0 0 0-17.5 46.9v673.5c0 27.9-19.5 44.6-38.3 44.6-9.7 0-18.7-4.4-26-12.7l-135-152.2a54 54 0 0 0-46.1-18.2c-18.6.1-36.1 8-48.1 21.7a84.6 84.6 0 0 0-20.8 49.5z"/><path d="M222.2 788.3a70.2 70.2 0 0 0 18.7 53.2l356.7 401.7c69.1 77.5 158.1 110.6 297.4 110.6 156.3 0 251.1-40.8 298.5-128.3 42.6-78.7 42.6-184.4 42.6-306.7v-294c0-21.8-5.3-38.4-15.8-49.4a58.1 58.1 0 0 0-41.9-18.1h-.7c-32.6.1-58.1 29.3-58.1 66.6v171.3c-2.8 23.5-18.4 39.8-38.3 39.8-21.5 0-39-20.3-39-45.3V550.4c0-22.9-12.8-62.6-60.6-66.6h-.8a52 52 0 0 0-40.2 19.6 73.4 73.4 0 0 0-15.8 47v196.9c-2.8 22.8-19.5 39.9-39 39.9-21.5 0-39-20.3-39-45.3V470.1c0-21.1-5.1-37.2-15.1-47.6a61.5 61.5 0 0 0-43.2-19c-32.8 0-57.5 28.6-57.5 66.6v213.2c-2.8 22.8-19.5 39.9-39 39.9-21.5 0-39-20.3-39-45.3V182.1c0-38-24.1-66.6-56-66.6-16.3 0-31.6 7-43.1 19.7a69.6 69.6 0 0 0-17.5 46.9v673.5c0 27.9-19.5 44.6-38.3 44.6-9.7 0-18.7-4.4-26-12.7l-135-152.2a54 54 0 0 0-46.1-18.2c-18.6.1-36.1 8-48.1 21.7a84.6 84.6 0 0 0-20.8 49.5z" fill="#fff"/></svg>