<svg xmlns="http://www.w3.org/2000/svg" viewBox="0 0 71 22"><style type="text/css">  
	.st0{display:none;}
	.st1{display:inline;fill:#DE9AC1;}
	.st2{display:inline;}
	.st3{fill:#B0B0B0;}
	.st4{fill:#919191;}
</style><g class="st0"><path class="st1" d="M-361.2 90.1c0 0-0.8-9.8 1.2-10 1.9-0.2 2.5 0.6 2.5 0.6V90c0 0 27.3-0.3 19.2 15.8 -10.8 13.8-21.7-9.1-21.7-9.1s-9.5-0.9-14 9.8c-1.8 4.3-1.5 5.4-0.9 10.6 1 6.2 2.8 8.6 2.8 8.6s31.4-3.6 27.9 18.2c-2.1 7.2-6.1 8.1-10.3 7.8 -15.7-1.2-22.6-17.6-22.6-17.6s-12.2 3.9-11.8 10.8 -2.5 32.8 16.4 43.4c-1.2 2.2-1.8 3.8-4.1 4.4 -2.6-2.4-20.3-9.2-15.2-50.8 0.4-3.4 14-14.6 14-14.6s-0.9-6.6-0.3-15.2C-377.6 101.7-374 96.6-361.2 90.1z"/></g><path class="st3" d="M53.8 10.4c-0.2 1.3-1.2 1.3-2.2 1.3H51l0.4-2.5c0-0.2 0.2-0.3 0.3-0.3h0.3c0.7 0 1.3 0 1.6 0.4C53.8 9.6 53.8 9.9 53.8 10.4M53.3 6.9h-3.8c-0.3 0-0.5 0.2-0.5 0.4L47.5 17c0 0.2 0.1 0.3 0.3 0.4 0 0 0 0 0 0h1.9c0.2 0 0.3-0.1 0.4-0.3l0.4-2.7c0-0.3 0.3-0.4 0.5-0.4h1.2c2.5 0 3.9-1.2 4.3-3.6 0.2-1 0-1.9-0.5-2.4C55.5 7.2 54.6 6.9 53.3 6.9"/><path class="st3" d="M27 10.4c-0.2 1.3-1.2 1.3-2.2 1.3h-0.6l0.4-2.5c0-0.2 0.2-0.3 0.3-0.3h0.3c0.7 0 1.3 0 1.6 0.4C27 9.6 27 9.9 27 10.4M26.5 6.9h-3.8c-0.3 0-0.5 0.2-0.5 0.4L20.7 17c0 0.2 0.1 0.3 0.3 0.4 0 0 0 0 0 0h1.8c0.3 0 0.5-0.2 0.5-0.4l0.4-2.6c0-0.3 0.3-0.4 0.5-0.4h1.2c2.5 0 3.9-1.2 4.3-3.6 0.2-1 0-1.9-0.5-2.4C28.7 7.2 27.8 6.9 26.5 6.9M35.3 13.9c-0.2 1-1 1.7-2 1.7 -0.5 0-0.9-0.2-1.2-0.5 -0.3-0.3-0.4-0.8-0.3-1.3 0.2-1 1-1.7 2-1.7 0.5 0 0.9 0.2 1.2 0.5C35.2 12.9 35.3 13.4 35.3 13.9M37.8 10.4H36c-0.2 0-0.3 0.1-0.3 0.3l-0.1 0.5 -0.1-0.2c-0.4-0.6-1.3-0.8-2.1-0.8 -2 0-3.7 1.5-4 3.6 -0.2 1.1 0.1 2.1 0.7 2.8 0.5 0.6 1.3 0.9 2.3 0.9 1.6 0 2.5-1 2.5-1L34.7 17c0 0.2 0.1 0.3 0.3 0.4 0 0 0 0 0 0h1.6c0.3 0 0.5-0.2 0.5-0.4l1-6.2C38.1 10.6 38 10.4 37.8 10.4 37.8 10.4 37.8 10.4 37.8 10.4"/><path class="st3" d="M62.1 13.9c-0.2 1-1 1.7-2 1.7 -0.5 0-0.9-0.2-1.2-0.5 -0.3-0.3-0.4-0.8-0.3-1.3 0.2-1 1-1.7 2-1.7 0.5 0 0.9 0.2 1.2 0.5C62 12.9 62.1 13.4 62.1 13.9M64.6 10.4h-1.8c-0.2 0-0.3 0.1-0.3 0.3l-0.1 0.5 -0.1-0.2c-0.4-0.6-1.3-0.8-2.1-0.8 -2 0-3.7 1.5-4 3.6 -0.2 1.1 0.1 2.1 0.7 2.8 0.5 0.6 1.3 0.9 2.3 0.9 1.6 0 2.5-1 2.5-1L61.5 17c0 0.2 0.1 0.3 0.3 0.4 0 0 0 0 0.1 0h1.6c0.3 0 0.5-0.2 0.5-0.4l1-6.2C64.9 10.6 64.8 10.4 64.6 10.4 64.6 10.4 64.6 10.4 64.6 10.4"/><path class="st3" d="M47.3 10.4h-1.8c-0.2 0-0.3 0.1-0.4 0.2l-2.5 3.7 -1.1-3.5c-0.1-0.2-0.3-0.4-0.5-0.4h-1.8c-0.2 0-0.3 0.1-0.3 0.3 0 0 0 0.1 0 0.1l2 5.8 -1.9 2.6c-0.1 0.1-0.1 0.3 0.1 0.4 0.1 0 0.1 0.1 0.2 0.1h1.8c0.2 0 0.3-0.1 0.4-0.2l6-8.7c0.1-0.1 0.1-0.3-0.1-0.4C47.5 10.4 47.4 10.4 47.3 10.4"/><path class="st3" d="M66.7 7.1L65.1 17c0 0.2 0.1 0.3 0.3 0.4 0 0 0 0 0 0H67c0.3 0 0.5-0.2 0.5-0.4L69 7.2c0-0.2-0.1-0.3-0.3-0.4 0 0 0 0 0 0H67C66.8 6.9 66.7 7 66.7 7.1"/><path class="st3" d="M5.6 6.7c0.1-0.3 0.3-0.6 0.7-0.6h4.3c0.5 0 1 0 1.4 0.1 0.2 0 0.5 0.1 0.7 0.2 0.3 0.1 0.5 0.2 0.8 0.3 0.2-1.4 0-2.3-0.7-3.1 -0.8-0.9-2.3-1.3-4.2-1.3H3c-0.4 0-0.7 0.3-0.8 0.7L0 17.3c0 0.3 0.1 0.5 0.4 0.5 0 0 0 0 0.1 0h3.4l0.8-5.4L5.6 6.7z"/><path class="st3" d="M13.4 6.7c0 0.1 0 0.2-0.1 0.3 -0.7 3.7-3.2 5-6.3 5H5.4c-0.4 0-0.7 0.3-0.8 0.7l-0.8 5.2 -0.2 1.5c0 0.2 0.1 0.4 0.3 0.5 0 0 0 0 0.1 0h2.8c0.3 0 0.6-0.2 0.7-0.6l0-0.1 0.5-3.4 0-0.2c0.1-0.3 0.3-0.6 0.7-0.6h0.4c2.7 0 4.9-1.1 5.5-4.3 0.3-1.3 0.1-2.5-0.6-3.3C13.9 7 13.7 6.8 13.4 6.7"/><path class="st4" d="M12.6 6.4c-0.1 0-0.2-0.1-0.3-0.1s-0.2 0-0.4-0.1c-0.4-0.1-0.9-0.1-1.4-0.1H6.3c-0.3 0-0.6 0.2-0.7 0.6l-0.9 5.7 0 0.2C4.7 12.3 5 12 5.4 12H7c3.1 0 5.6-1.3 6.3-5 0-0.1 0-0.2 0.1-0.3 -0.2-0.1-0.4-0.2-0.6-0.2C12.7 6.4 12.7 6.4 12.6 6.4"/></svg>