<svg width="41" height="41" viewBox="0 0 41 41" fill="none" xmlns="http://www.w3.org/2000/svg">
<path fill-rule="evenodd" clip-rule="evenodd" d="M24.6036 27.8533L26.8282 33.1778L29.0527 27.8533L33.4948 27.8533C35.3358 27.8533 36.8282 26.361 36.8282 24.52V6.74223C36.8282 4.90128 35.3358 3.40889 33.4948 3.40889H6.82817C4.98722 3.40889 3.49483 4.90128 3.49483 6.74223V24.52C3.49483 26.361 4.98722 27.8533 6.82817 27.8533H24.6036ZM27.8534 39.3706C27.4731 40.281 26.1833 40.281 25.8029 39.3706L22.3837 31.1867H6.82817C3.14627 31.1867 0.161499 28.2019 0.161499 24.52V6.74223C0.161499 3.06033 3.14627 0.0755615 6.82817 0.0755615H33.4948C37.1767 0.0755615 40.1615 3.06033 40.1615 6.74223V24.52C40.1615 28.2019 37.1767 31.1867 33.4948 31.1867L31.2726 31.1867L27.8534 39.3706Z" fill="#7E3C7E"/>
</svg>
