<svg xmlns="http://www.w3.org/2000/svg" viewBox="0 0 72 22"><style type="text/css">  
	.st0{display:none;}
	.st1{display:inline;fill:#DE9AC1;}
	.st2{display:inline;}
	.st3{fill:#B0B0B0;}
</style><g class="st0"><path class="st1" d="M-360.7 90.1c0 0-0.8-9.8 1.2-10 1.9-0.2 2.5 0.6 2.5 0.6V90c0 0 27.3-0.3 19.2 15.8 -10.8 13.8-21.7-9.1-21.7-9.1s-9.5-0.9-14 9.8c-1.8 4.3-1.5 5.4-0.9 10.6 1 6.2 2.8 8.6 2.8 8.6s31.4-3.6 27.9 18.2c-2.1 7.2-6.1 8.1-10.3 7.8 -15.7-1.2-22.6-17.6-22.6-17.6s-12.2 3.9-11.8 10.8 -2.5 32.8 16.4 43.4c-1.2 2.2-1.8 3.8-4.1 4.4 -2.6-2.4-20.3-9.2-15.2-50.8 0.4-3.4 14-14.6 14-14.6s-0.9-6.6-0.3-15.2C-377.1 101.7-373.5 96.6-360.7 90.1z"/></g><path class="st3" d="M1119.6 1000.1h-3.2v12h3.2c3.6 0 6.8-1.2 6.8-6C1126.4 1001.4 1123.2 1000.1 1119.6 1000.1zM1120.1 1010.2h-1.3v-8.2h1.3c2 0 3.9 1.5 3.9 4.1C1124 1008.7 1122.1 1010.2 1120.1 1010.2z"/><path class="st3" d="M1147.5 1010.9c-0.6 0.7-2 1.2-3 1.3 -3.7 0.3-6.1-1.8-6.1-5.9 0-4.1 2.1-6.5 6.1-6.3 0.8 0 2 0.3 2.9 1v2.3c-1-0.6-2-1.1-2.9-1.1 -2.4-0.1-3.7 1.5-3.7 3.9s1.1 3.8 3.7 3.7c1 0 2.4-0.8 3-1.3V1010.9L1147.5 1010.9z"/><path class="st3" d="M1154.3 999.9c-3.7 0-6.2 2.5-6.2 6.2s2.4 6.2 6.2 6.2c3.7 0 6.1-2.6 6.1-6.2S1158 999.9 1154.3 999.9z"/><rect x="1127.4" y="1000.1" class="st3" width="2.4" height="12"/><polygon class="st3" points="1164.7 1006.5 1162.1 1000.1 1159.6 1000.1 1164.2 1012.1 1165 1012.1 1169.6 1000.1 1167.2 1000.1 "/><path class="st3" d="M1133 1003.5c0-1.2 0.9-1.5 1.7-1.3 0.9 0.1 1.8 0.7 2.6 1.2v-2.3c-0.8-0.7-1.7-1.1-2.7-1.1 -2.1 0-4.1 1-4.1 3.7 0 4 5.2 3 5.2 5.3 0 1.1-1.1 1.4-2.1 1.2 -0.9-0.2-2.1-1-2.9-1.4v2.4c1 0.7 1.8 1.1 3 1.2 2.4 0.3 4.4-1 4.4-3.6C1138.1 1004.7 1133 1005.6 1133 1003.5z"/><polygon class="st3" points="1172.6 1006.9 1176.8 1006.9 1176.8 1005 1172.6 1005 1172.6 1002 1177.2 1002 1177.2 1000.1 1170.2 1000.1 1170.2 1012.1 1177.2 1012.1 1177.2 1010.2 1172.6 1010.2 "/><path class="st3" d="M1184.8 1007.4c-0.2-0.5-0.6-1.2-1.2-1.2l0 0c1.5-0.2 2.4-1.4 2.4-2.8 0-3.3-3-3.3-5.5-3.3h-2.5v12h2.4v-5h0.8c1 0 1.3 0.3 1.6 1.2l1.4 3.7h2.6L1184.8 1007.4zM1181 1005.2h-0.8v-3.2h0.8c1.2 0 2.5 0.1 2.5 1.5C1183.5 1005.1 1182.1 1005.2 1181 1005.2z"/><path class="st3" d="M4 4.9H0.8v12H4c3.6 0 6.8-1.2 6.8-6C10.8 6.2 7.6 4.9 4 4.9zM4.5 15H3.2V6.8h1.3c2 0 3.9 1.5 3.9 4.1C8.4 13.5 6.5 15 4.5 15z"/><path class="st3" d="M31.9 15.7c-0.6 0.7-2 1.2-3 1.3 -3.7 0.3-6.1-1.8-6.1-5.9 0-4.1 2.1-6.5 6.1-6.3 0.8 0 2 0.3 2.9 1v2.3c-1-0.6-2-1.1-2.9-1.1 -2.4-0.1-3.7 1.5-3.7 3.9s1.1 3.8 3.7 3.7c1 0 2.4-0.8 3-1.3V15.7L31.9 15.7z"/><path class="st3" d="M38.7 4.7c-3.7 0-6.2 2.5-6.2 6.2s2.4 6.2 6.2 6.2c3.7 0 6.1-2.6 6.1-6.2S42.4 4.7 38.7 4.7z"/><rect x="11.8" y="4.9" class="st3" width="2.4" height="12"/><polygon class="st3" points="49.1 11.3 46.5 4.9 44 4.9 48.6 16.9 49.4 16.9 54 4.9 51.6 4.9 "/><path class="st3" d="M17.4 8.3c0-1.2 0.9-1.5 1.7-1.3 0.9 0.1 1.8 0.7 2.6 1.2V5.9C20.9 5.2 20 4.8 19 4.8c-2.1 0-4.1 1-4.1 3.7 0 4 5.2 3 5.2 5.3 0 1.1-1.1 1.4-2.1 1.2 -0.9-0.2-2.1-1-2.9-1.4V16c1 0.7 1.8 1.1 3 1.2 2.4 0.3 4.4-1 4.4-3.6C22.5 9.5 17.4 10.4 17.4 8.3z"/><polygon class="st3" points="57 11.7 61.2 11.7 61.2 9.8 57 9.8 57 6.8 61.6 6.8 61.6 4.9 54.6 4.9 54.6 16.9 61.6 16.9 61.6 15 57 15 "/><path class="st3" d="M69.2 12.2C69 11.7 68.6 11 68 11l0 0c1.5-0.2 2.4-1.4 2.4-2.8 0-3.3-3-3.3-5.5-3.3h-2.5v12h2.4v-5h0.8c1 0 1.3 0.3 1.6 1.2l1.4 3.7h2.6L69.2 12.2zM65.4 10h-0.8V6.8h0.8c1.2 0 2.5 0.1 2.5 1.5C67.9 9.9 66.5 10 65.4 10z"/></svg>