<svg xmlns="http://www.w3.org/2000/svg" viewBox="0 0 29 22"><style type="text/css">  
	.st0{display:none;}
	.st1{display:inline;fill:#DE9AC1;}
	.st2{display:inline;}
	.st3{fill:#B0B0B0;}
</style><g class="st0"><path class="st1" d="M-382.2 90.1c0 0-0.8-9.8 1.2-10 1.9-0.2 2.5 0.6 2.5 0.6V90c0 0 27.3-0.3 19.2 15.8 -10.8 13.8-21.7-9.1-21.7-9.1s-9.5-0.9-14 9.8c-1.8 4.3-1.5 5.4-0.9 10.6 1 6.2 2.8 8.6 2.8 8.6s31.4-3.6 27.9 18.2c-2.1 7.2-6.1 8.1-10.3 7.8 -15.7-1.2-22.6-17.6-22.6-17.6s-12.2 3.9-11.8 10.8 -2.5 32.8 16.4 43.4c-1.2 2.2-1.8 3.8-4.1 4.4 -2.6-2.4-20.3-9.2-15.2-50.8 0.4-3.4 14-14.6 14-14.6s-0.9-6.6-0.3-15.2C-398.6 101.7-395 96.6-382.2 90.1z"/></g><path class="st3" d="M13.5 5v11.9c2.4-0.9 4.1-3.2 4.1-6C17.6 8.2 15.9 5.9 13.5 5z"/><path class="st3" d="M16.3 0h-5.2C5 0 0 4.5 0 11.1 0 17.1 5 22 11.1 22h5.2c6 0 11.5-4.9 11.5-10.9C27.9 4.5 22.4-0.1 16.3 0zM11.2 21C5.6 21 1.1 16.5 1.1 10.9S5.6 0.8 11.2 0.8s10.1 4.5 10.1 10.1C21.3 16.5 16.7 21 11.2 21z"/><path class="st3" d="M4.8 10.9c0 2.7 1.7 5 4.1 6V5C6.5 5.9 4.8 8.2 4.8 10.9z"/></svg>