<svg width="51" height="51" viewBox="0 0 51 51" fill="none" xmlns="http://www.w3.org/2000/svg">
<rect width="50" height="50" transform="translate(0.876617 0.904449)" fill="white"/>
<path fill-rule="evenodd" clip-rule="evenodd" d="M15.2522 5.93997C16.9909 5.52196 18.7873 6.3638 19.5786 7.96746L23.0485 14.9998C23.797 16.5168 23.4607 18.3452 22.2215 19.4966L19.85 21.7002C19.6593 21.8774 19.6573 22.0974 19.7253 22.223C22.0149 26.4557 25.4834 29.9428 29.6806 32.2342C29.8079 32.3037 30.0385 32.2997 30.2135 32.0883L32.0953 29.815C33.2289 28.4456 35.1561 28.0372 36.7477 28.8289L43.7448 32.3098C45.3899 33.1282 46.2209 34.995 45.7422 36.7615C45.4746 37.7491 45.143 38.9826 44.818 40.1951C43.8735 43.7193 40.58 46.4723 36.669 45.8997C20.8091 43.5776 8.28143 30.9341 5.95198 14.952C5.37112 10.9667 8.22454 7.62953 11.8462 6.75882L15.2522 5.93997ZM16.637 9.4189C16.524 9.18981 16.2673 9.06954 16.0189 9.12926L12.613 9.94811C10.3378 10.4951 8.90398 12.4626 9.19785 14.4789C11.321 29.0456 22.7388 40.545 37.1442 42.6541C39.1166 42.9429 41.055 41.565 41.6497 39.3459C41.9749 38.1325 42.3074 36.8955 42.5762 35.9036C42.6477 35.6397 42.5221 35.3651 42.2838 35.2466L35.2867 31.7658C35.0594 31.6526 34.784 31.711 34.6221 31.9066L32.7403 34.1799C31.6474 35.5001 29.7267 35.9965 28.1088 35.1132C23.3524 32.5165 19.4293 28.57 16.8402 23.7837C16.0055 22.2407 16.4182 20.4113 17.6172 19.2972L19.9888 17.0936C20.1658 16.9292 20.2139 16.6679 20.1069 16.4512L16.637 9.4189Z" fill="#999999"/>
</svg>
