<svg xmlns="http://www.w3.org/2000/svg" viewBox="0 0 33 22"><style type="text/css">  
	.st0{display:none;}
	.st1{display:inline;fill:#DE9AC1;}
	.st2{display:inline;}
	.st3{fill:#B0B0B0;}
	.st4{fill:#919191;}
</style><g class="st0"><path class="st1" d="M-361.2 90.1c0 0-0.8-9.8 1.2-10 1.9-0.2 2.5 0.6 2.5 0.6V90c0 0 27.3-0.3 19.2 15.8 -10.8 13.8-21.7-9.1-21.7-9.1s-9.5-0.9-14 9.8c-1.8 4.3-1.5 5.4-0.9 10.6 1 6.2 2.8 8.6 2.8 8.6s31.4-3.6 27.9 18.2c-2.1 7.2-6.1 8.1-10.3 7.8 -15.7-1.2-22.6-17.6-22.6-17.6s-12.2 3.9-11.8 10.8 -2.5 32.8 16.4 43.4c-1.2 2.2-1.8 3.8-4.1 4.4 -2.6-2.4-20.3-9.2-15.2-50.8 0.4-3.4 14-14.6 14-14.6s-0.9-6.6-0.3-15.2C-377.6 101.7-374 96.6-361.2 90.1z"/></g><path class="st3" d="M12.3 11c0-3.1 1.5-5.9 3.8-7.8 -1.7-1.3-3.8-2.1-6.1-2.1C4.4 1.1 0 5.5 0 11s4.4 9.9 9.9 9.9c2.3 0 4.5-0.8 6.1-2.1C13.8 16.9 12.3 14.1 12.3 11z"/><path class="st3" d="M22.2 1.1c-2.3 0-4.5 0.8-6.1 2.1 2.3 1.8 3.8 4.6 3.8 7.8 0 3.1-1.5 5.9-3.8 7.8 1.7 1.3 3.8 2.1 6.1 2.1 5.5 0 9.9-4.4 9.9-9.9S27.7 1.1 22.2 1.1z"/><path class="st4" d="M19.9 11c0-3.1-1.5-5.9-3.8-7.8C13.8 5 12.3 7.8 12.3 11c0 3.1 1.5 5.9 3.8 7.8C18.4 16.9 19.9 14.1 19.9 11z"/></svg>