<svg xmlns="http://www.w3.org/2000/svg" viewBox="0 0 30 22"><style type="text/css">  
	.st0{display:none;}
	.st1{display:inline;fill:#DE9AC1;}
	.st2{display:inline;}
	.st3{fill:#B0B0B0;}
</style><g class="st0"><path class="st1" d="M-364.7 90.1c0 0-0.8-9.8 1.2-10 1.9-0.2 2.5 0.6 2.5 0.6V90c0 0 27.3-0.3 19.2 15.8 -10.8 13.8-21.7-9.1-21.7-9.1s-9.5-0.9-14 9.8c-1.8 4.3-1.5 5.4-0.9 10.6 1 6.2 2.8 8.6 2.8 8.6s31.4-3.6 27.9 18.2c-2.1 7.2-6.1 8.1-10.3 7.8 -15.7-1.2-22.6-17.6-22.6-17.6s-12.2 3.9-11.8 10.8 -2.5 32.8 16.4 43.4c-1.2 2.2-1.8 3.8-4.1 4.4 -2.6-2.4-20.3-9.2-15.2-50.8 0.4-3.4 14-14.6 14-14.6s-0.9-6.6-0.3-15.2C-381.1 101.7-377.5 96.6-364.7 90.1z"/></g><path class="st3" d="M21.7 13.5h2.1c0.1 0 0.2 0 0.3 0 0.4-0.1 0.7-0.4 0.7-0.9s-0.3-0.8-0.7-0.9c-0.1 0-0.2 0-0.3 0h-2.1V13.5z"/><path class="st3" d="M23.5 0.3c-2 0-3.6 1.6-3.6 3.6v3.7H25c0.1 0 0.3 0 0.4 0 1.2 0.1 2 0.7 2 1.7 0 0.8-0.6 1.5-1.6 1.6l0 0c1.2 0.1 2.1 0.7 2.1 1.7 0 1.1-1 1.8-2.3 1.8H20v7.3h5.3c2 0 3.6-1.6 3.6-3.6v-18h-5.4V0.3z"/><path class="st3" d="M24.5 9.6c0-0.5-0.3-0.8-0.7-0.9 0 0-0.1 0-0.2 0h-1.9v1.7h1.9c0.1 0 0.2 0 0.2 0C24.1 10.4 24.5 10.1 24.5 9.6L24.5 9.6z"/><path class="st3" d="M3.6 0.3C1.6 0.3 0 1.9 0 3.9v8.9c1 0.5 2.1 0.8 3.1 0.8 1.2 0 1.9-0.8 1.9-1.8V7.6h3.1v4.2c0 1.6-1 3-4.4 3 -2.1 0-3.7-0.5-3.7-0.5v7.6h5.3c2 0 3.6-1.6 3.6-3.6v-18H3.6z"/><path class="st3" d="M13.5 0.3c-2 0-3.6 1.6-3.6 3.6v4.7c0.9-0.8 2.5-1.3 5.1-1.1 1.4 0.1 2.8 0.4 2.8 0.4v1.5c-0.7-0.4-1.6-0.7-2.7-0.8C13.2 8.5 12 9.4 12 11.1s1.2 2.6 3.1 2.5c1.1-0.1 2-0.4 2.7-0.8v1.5c0 0-1.4 0.4-2.8 0.4 -2.6 0.1-4.1-0.4-5.1-1.2v8.3h5.3c2 0 3.6-1.6 3.6-3.6v-18L13.5 0.3 13.5 0.3z"/></svg>