<svg xmlns="http://www.w3.org/2000/svg" viewBox="0 0 60 22"><style type="text/css">  
	.st0{display:none;}
	.st1{display:inline;fill:#DE9AC1;}
	.st2{display:inline;}
	.st3{fill:#B0B0B0;}
</style><g class="st0"><path class="st1" d="M-361.2 90.1c0 0-0.8-9.8 1.2-10 1.9-0.2 2.5 0.6 2.5 0.6V90c0 0 27.3-0.3 19.2 15.8 -10.8 13.8-21.7-9.1-21.7-9.1s-9.5-0.9-14 9.8c-1.8 4.3-1.5 5.4-0.9 10.6 1 6.2 2.8 8.6 2.8 8.6s31.4-3.6 27.9 18.2c-2.1 7.2-6.1 8.1-10.3 7.8 -15.7-1.2-22.6-17.6-22.6-17.6s-12.2 3.9-11.8 10.8 -2.5 32.8 16.4 43.4c-1.2 2.2-1.8 3.8-4.1 4.4 -2.6-2.4-20.3-9.2-15.2-50.8 0.4-3.4 14-14.6 14-14.6s-0.9-6.6-0.3-15.2C-377.6 101.7-374 96.6-361.2 90.1z"/></g><path class="st3" d="M58.1 16.1V12H57h-2.8c-0.8 0-1.5 0.2-2 0.6V12H48c-0.7 0-1.5 0.2-1.9 0.6V12h-7.5v0.6C38 12.1 37 12 36.6 12h-5v0.6C31.1 12.1 30 12 29.4 12h-5.6l-1.3 1.4L21.3 12h-8.4v9.1h8.2l1.3-1.4 1.2 1.4h5V19h0.7l2.1-0.3v2.5h4.2v-2.4h0.2c0.3 0 0.3 0 0.3 0.3v2.1h12.7c0.8 0 1.7-0.2 2.1-0.6v0.6h4c0.8 0 1.7-0.1 2.2-0.5 0.9-0.6 1.5-1.6 1.5-2.8C58.6 17.2 58.4 16.6 58.1 16.1zM29.4 17.7h-1.9v2.2h-3l-1.9-2.1 -2 2.1h-6.1v-6.6h6.2l1.9 2.1 2-2.1h4.9c1.2 0 2.6 0.4 2.7 2.2C32.1 17.3 30.8 17.7 29.4 17.7zM39 19.8h-1.6V19c0-0.4 0-1-0.3-1.3 -0.2-0.3-0.5-0.3-1.1-0.3h-1.7v2.4h-1.6v-6.6h3.5c0.8 0 1.4 0 1.9 0.3 0.4 0.3 0.8 0.8 0.8 1.5 0 1-0.7 1.5-1 1.7 0.4 0.2 0.7 0.4 0.8 0.6 0.2 0.3 0.3 0.6 0.3 1.2L39 19.8 39 19.8zM45 14.6h-3.6v1.2h3.5v1.3h-3.5v1.3H45v1.4h-5.2v-6.6H45V14.6zM51 19.1c-0.4 0.4-1.1 0.7-2 0.7h-3v-1.4h3c0.3 0 0.4 0 0.6-0.2 0.1-0.1 0.2-0.6 0.1-0.8 -0.1-0.2-0.4-0.3-0.6-0.3 -1.5 0-3.3 0-3.3-2 0-1 0.5-2 2.2-2h3.2v1.6c0 0-1 0-1.1 0 -0.5 0-1 0-1.5 0 -0.3 0-0.6 0-0.8 0.2s-0.2 0.6 0.1 0.8c0.2 0.1 0.4 0.1 0.7 0.1h0.8c0.8 0 1.7 0.2 2.1 1 0.2 0.3 0.2 0.6 0.2 0.9C51.6 18.3 51.4 18.7 51 19.1zM57 19.1c-0.4 0.4-1.1 0.7-2 0.7h-3v-1.4h3c0.3 0 0.4 0 0.6-0.2 0.1-0.1 0.2-0.6 0.1-0.8s-0.4-0.3-0.6-0.3c-1.5 0-3.3 0-3.3-2 0-1 0.5-2 2.2-2h3.2v1.6c0 0-1 0-1.1 0 -0.5 0-1 0-1.5 0 -0.3 0-0.6 0-0.8 0.2 -0.2 0.2-0.2 0.6 0.1 0.8 0.2 0.1 0.4 0.1 0.7 0.1h0.8c0.8 0 1.7 0.2 2.1 1 0.2 0.3 0.2 0.6 0.2 0.9C57.6 18.3 57.4 18.7 57 19.1z"/><polygon class="st3" points="25.9 19.2 25.9 13.9 23.4 16.5 "/><polygon class="st3" points="15.9 14.6 15.9 15.8 19.3 15.8 19.3 17.1 15.9 17.1 15.9 18.5 19.7 18.5 21.5 16.5 19.8 14.6 "/><path class="st3" d="M29.8 14.6c-0.1-0.1-0.3-0.1-0.4-0.1h-2v1.7h2c0.3 0 0.5 0 0.7-0.2 0.3-0.3 0.3-0.8 0.1-1.1C30.1 14.8 29.9 14.7 29.8 14.6z"/><path class="st3" d="M36.9 14.7c-0.1-0.1-0.3-0.1-0.4-0.1 -0.1 0-0.1 0-0.2 0 -0.6 0-1.3 0-1.9 0v1.5c0 0 1.4 0 2.1 0 0.2 0 0.3 0 0.5-0.1C37.4 15.8 37.4 14.9 36.9 14.7z"/><polygon class="st3" points="5 5.8 7.1 5.8 6 3.2 "/><path class="st3" d="M15.7 10l0.5-1.1V10h12.9V7.6h0.2c0.2 0 0.2 0 0.2 0.3v2h6.7V9.4c0.6 0.3 1.4 0.6 2.5 0.6h2.8L42 8.4h1.3l0.6 1.5h5.4V8.5l0.8 1.4h4.4V0.8h-4.2v1.1l-0.6-1.1h-4.4v1.1l-0.6-1.1h-6c-1 0-1.9 0.2-2.6 0.6V0.8h-4.2v0.6c-0.5-0.4-1-0.6-1.8-0.6h-15l-1 2.3 -1-2.3H8.6v1.1L8 0.8H4L2.1 5.2 0 10h2.1 2.6l0.6-1.5h1.3L7.2 10h5.4V8.9L13 10H15.7zM36.4 2.9c0.5-0.6 1.3-0.7 2.3-0.7h1.5v1.4h-1.5c-0.6 0-0.8 0.1-1.2 0.4C37.2 4.3 37 4.8 37 5.5s0.1 1.2 0.5 1.6c0.3 0.3 0.7 0.4 1.1 0.4h0.7l2.1-5.1h2.3l2.6 6.2V2.2h2.3l2.7 4.6V2.2h1.6v6.4h-1.8l-3-4.9v4.9h-1.8 -1.4l-0.6-1.4H41l-0.6 1.5h-1.8c-0.7 0-1.7-0.2-2.2-0.7 -0.6-0.6-0.8-1.3-0.8-2.5C35.6 4.6 35.8 3.6 36.4 2.9zM33.4 2H35v6.6h-1.6V2zM26.2 2.1h3.5c0.8 0 1.4 0 1.9 0.3s0.7 0.7 0.7 1.5c0 1-0.7 1.6-1.1 1.8 0.2 0 0.4 0.1 0.6 0.2C32 6 32.1 6.1 32.2 6.2c0.2 0.3 0.3 0.8 0.3 1.2v1.3h-1.6V7.9c0-0.4 0-0.9-0.3-1.3 -0.3-0.3-0.6-0.3-1.1-0.3h-1.7v2.4h-1.6L26.2 2.1 26.2 2.1zM20 2.1h5.2v1.4h-3.6v1.2h3.5V6h-3.5v1.3h3.6v1.4H20V2.1zM11.5 3.5v5.1H8.3L7.6 7.2H4.5L3.9 8.7H2.1l2.8-6.6h2.3l2.6 6.2V2.1h2.5l2 4.5 1.9-4.5h2.6v6.5h0.1 -0.1 -1.5V3.5l-2.2 5.1h-1.4L11.5 3.5z"/><polygon class="st3" points="42.8 3.2 41.7 5.8 43.8 5.8 "/><path class="st3" d="M30.4 4.9c0.1-0.1 0.3-0.4 0.3-0.7s-0.1-0.5-0.3-0.6 -0.5-0.1-0.7-0.1h-1.9V5h1.9C30 5 30.3 5 30.4 4.9z"/></svg>