<svg xmlns="http://www.w3.org/2000/svg" viewBox="0 0 51 22"><style type="text/css">  
	.st0{display:none;}
	.st1{display:inline;fill:#DE9AC1;}
	.st2{display:inline;}
	.st3{fill:#919191;}
	.st4{fill:#B0B0B0;}
</style><g class="st0"><path class="st1" d="M-361.2 90.1c0 0-0.8-9.8 1.2-10 1.9-0.2 2.5 0.6 2.5 0.6V90c0 0 27.3-0.3 19.2 15.8 -10.8 13.8-21.7-9.1-21.7-9.1s-9.5-0.9-14 9.8c-1.8 4.3-1.5 5.4-0.9 10.6 1 6.2 2.8 8.6 2.8 8.6s31.4-3.6 27.9 18.2c-2.1 7.2-6.1 8.1-10.3 7.8 -15.7-1.2-22.6-17.6-22.6-17.6s-12.2 3.9-11.8 10.8 -2.5 32.8 16.4 43.4c-1.2 2.2-1.8 3.8-4.1 4.4 -2.6-2.4-20.3-9.2-15.2-50.8 0.4-3.4 14-14.6 14-14.6s-0.9-6.6-0.3-15.2C-377.6 101.7-374 96.6-361.2 90.1z"/></g><path class="st3" d="M10.1 12.7c-0.5-2.5-1-5-1.5-7.5C8.5 4.5 7.9 3.9 7.1 3.9c-1.6-0.1-3.3 0-5 0C1.5 3.8 0.7 3.7 0 4.1c1.5 0.5 3.1 1 4.4 1.8 0 0 0 0 0 0 0 0 0 0 0 0C7 7.4 9.3 9.8 10.1 12.7z"/><path class="st4" d="M14.4 3.8c-1.3 3.5-2.7 7.1-3.9 10.7 -0.1-0.6-0.2-1.2-0.3-1.8 0 0 0 0 0 0 0 0 0 0.1 0 0.1C9.3 9.9 7.1 7.4 4.5 5.9c1.2 4.5 2.4 9 3.6 13.6 1.4 0 2.8 0 4.2 0 2.2-5.2 4.3-10.5 6.4-15.7C17.3 3.8 15.8 3.8 14.4 3.8z"/><path class="st4" d="M20.3 3.8c-0.8 5.2-1.7 10.4-2.5 15.7 1.3 0 2.7 0 4 0 0.8-5.2 1.7-10.4 2.5-15.7C23 3.8 21.6 3.8 20.3 3.8z"/><path class="st4" d="M34.8 11.7c-1.2-1.4-3.1-1.7-4.4-3 -0.6-0.7 0.1-1.6 0.9-1.8 1.6-0.4 3.2-0.1 4.6 0.6 0.2-1.1 0.4-2.3 0.5-3.4 -2.7-0.9-5.8-0.9-8.3 0.7 -1.6 1.1-2.7 3.3-2 5.2 0.6 1.5 2.1 2.4 3.5 3.1 0.7 0.4 1.6 0.8 1.9 1.7 0.1 0.7-0.6 1.3-1.2 1.5 -1.9 0.4-3.8 0-5.5-0.9 -0.2 1.2-0.4 2.4-0.6 3.5 2 0.8 4.1 0.9 6.2 0.7 1.8-0.3 3.7-1.1 4.7-2.8C36.1 15.3 36.1 13 34.8 11.7z"/><path class="st4" d="M46.8 3.9c-1.2 0-2.5 0-3.7 0 -0.9 0-1.4 0.8-1.6 1.5 -2 4.7-3.9 9.4-5.8 14 1.4 0 2.8 0 4.2 0 0.3-0.8 0.6-1.6 0.9-2.4 1.8 0 3.5 0 5.2 0 0.1 0.8 0.3 1.6 0.5 2.4 1.2 0 2.5 0 3.7 0C49 14.3 48 9.1 46.8 3.9zM41.8 13.9C42.6 12 43.2 10 44 8.1c0.3 2 0.7 3.9 1.2 5.8C44.1 13.9 43 13.9 41.8 13.9z"/></svg>