<svg xmlns="http://www.w3.org/2000/svg" viewBox="0 0 52 22"><style type="text/css">  
	.st0{display:none;}
	.st1{display:inline;fill:#DE9AC1;}
	.st2{display:inline;}
	.st3{fill-rule:evenodd;clip-rule:evenodd;fill:#B0B0B0;}
</style><g class="st0"><path class="st1" d="M-361.7 90.1c0 0-0.8-9.8 1.2-10 1.9-0.2 2.5 0.6 2.5 0.6V90c0 0 27.3-0.3 19.2 15.8 -10.8 13.8-21.7-9.1-21.7-9.1s-9.5-0.9-14 9.8c-1.8 4.3-1.5 5.4-0.9 10.6 1 6.2 2.8 8.6 2.8 8.6s31.4-3.6 27.9 18.2c-2.1 7.2-6.1 8.1-10.3 7.8 -15.7-1.2-22.6-17.6-22.6-17.6s-12.2 3.9-11.8 10.8 -2.5 32.8 16.4 43.4c-1.2 2.2-1.8 3.8-4.1 4.4 -2.6-2.4-20.3-9.2-15.2-50.8 0.4-3.4 14-14.6 14-14.6s-0.9-6.6-0.3-15.2C-378.1 101.7-374.5 96.6-361.7 90.1z"/></g><path class="st3" d="M41 21.8v-1.9c0.2 0 0.6 0 0.8 0 1.1 0 1.7-0.5 2.1-1.7l0.2-0.7L39.9 5.8h2.6l3 9.5 0 0 3-9.5H51l-4.4 12.3c-1 2.8-2.2 3.7-4.6 3.7C41.7 21.8 41.1 21.8 41 21.8L41 21.8zM9.6 3c0.6-0.7 1-1.8 0.9-2.8 -0.9 0-1.9 0.6-2.6 1.3C7.3 2.1 6.9 3.2 7 4.2 8 4.3 9 3.8 9.6 3L9.6 3zM10.5 4.5C9.1 4.4 7.9 5.3 7.2 5.3S5.5 4.5 4.3 4.6c-1.5 0-2.8 0.9-3.6 2.2 -1.5 2.6-0.4 6.6 1.1 8.7 0.7 1.1 1.6 2.2 2.8 2.2 1.1 0 1.5-0.7 2.8-0.7s1.7 0.7 2.9 0.7 1.9-1.1 2.7-2.1c0.8-1.2 1.2-2.4 1.2-2.5 0 0-2.3-0.9-2.3-3.5 0-2.2 1.8-3.2 1.9-3.3C12.6 4.7 11 4.5 10.5 4.5L10.5 4.5zM22.9 1.5c3.1 0 5.3 2.1 5.3 5.3 0 3.1-2.2 5.3-5.4 5.3h-3.4v5.5h-2.5v-16L22.9 1.5 22.9 1.5zM19.4 9.9h2.9c2.2 0 3.4-1.2 3.4-3.2s-1.2-3.2-3.4-3.2h-2.9V9.9L19.4 9.9zM28.9 14.2c0-2 1.6-3.3 4.3-3.5l3.2-0.2V9.6c0-1.3-0.9-2.1-2.3-2.1 -1.4 0-2.3 0.7-2.5 1.7h-2.3c0.1-2.1 1.9-3.7 4.8-3.7 2.8 0 4.6 1.5 4.6 3.8v8h-2.3v-1.9h-0.1c-0.7 1.3-2.2 2.1-3.7 2.1C30.5 17.7 28.9 16.3 28.9 14.2L28.9 14.2zM36.4 13.1v-0.9l-2.9 0.2c-1.4 0.1-2.2 0.7-2.2 1.7s0.8 1.7 2.1 1.7C35.1 15.8 36.4 14.6 36.4 13.1z"/></svg>