<svg width="40" height="34" viewBox="0 0 40 34" fill="none" xmlns="http://www.w3.org/2000/svg">
<path fill-rule="evenodd" clip-rule="evenodd" d="M0.688356 2.12488C0.253153 2.78768 0 3.58072 0 4.43288V29.696C0 32.0214 1.88512 33.9066 4.21053 33.9066H35.7895C38.1149 33.9066 40 32.0214 40 29.696V4.43288C40 2.10747 38.1149 0.222351 35.7895 0.222351H4.21053C3.91131 0.222351 3.61938 0.253563 3.33782 0.312908C2.23279 0.545233 1.28669 1.21024 0.686678 2.12318L0.688356 2.12488ZM33.6229 3.38025H6.37183L19.9974 17.1554L33.6229 3.38025ZM3.15789 4.62154L18.1264 19.7545C19.1564 20.7957 20.8383 20.7957 21.8683 19.7545L36.8421 4.61619V29.696C36.8421 30.2774 36.3708 30.7487 35.7895 30.7487H4.21053C3.62917 30.7487 3.15789 30.2774 3.15789 29.696V4.62154Z" fill="#7E3C7E"/>
</svg>
