<svg xmlns="http://www.w3.org/2000/svg" viewBox="0 0 300 92.5"><defs><style>.b{fill:#636}.h{fill:none;stroke:#fff;stroke-linecap:round;stroke-linejoin:round;stroke-opacity:0}.i{fill:#d98eb9}.j{fill:#cb78a7}.k{fill:#bd6396}.l{fill:#861063}.m{fill:#b84395}</style></defs><path d="M56.4 33.9a11.7 11.7 0 0 0-.9 2.4c0 .5-.1 1-.1 1.4V46h-3.2a2.1 2.1 0 0 0-2 2.1 2.4 2.4 0 0 0 1.2 2.1 3.1 3.1 0 0 0 1.9.4h2.2v41.9h5.3V50.7a13 13 0 0 0 4.8-.3 1.9 1.9 0 0 0 1.5-1.5 1.9 1.9 0 0 0-.8-2.2l-.3-.2-.4-.2-.5-.2A18.6 18.6 0 0 0 61 46h-.2v-8.8a1.3 1.3 0 0 1 .6-1.1 4.9 4.9 0 0 1 3.2-.5l1.4-.2a2.2 2.2 0 0 0 1.5-2.2v-.3a.4.4 0 0 1-.1-.3c0-.1 0-.2-.1-.2a2.5 2.5 0 0 0-1.9-1.5 16.2 16.2 0 0 0-4.9.1 5.4 5.4 0 0 0-4.1 2.9m50 11.7-5 1.6 10.8 30.6a2.6 2.6 0 0 0 2 1.9 3.1 3.1 0 0 0 2.3-.3l.2-.2.3-.3.3-.3.2-.4 5.7-15.8 4.2-12.1a7.9 7.9 0 0 0 .4-2 1.1 1.1 0 0 0-.1-.8.4.4 0 0 0-.1-.3 2.2 2.2 0 0 0-.5-.8 2.5 2.5 0 0 0-3.1-.5 3 3 0 0 0-.8.8l-.5.8-7.7 23.4-8.6-25.3m-10.3.2a2.1 2.1 0 0 0-1.2-.3 2.1 2.1 0 0 0-2.2 1.2l-.3.9a17.9 17.9 0 0 0-.2 2.3 8.3 8.3 0 0 0-3-2.6 12 12 0 0 0-5.8-1.8h-.7a11.6 11.6 0 0 0-5.2 1.1 14 14 0 0 0-4.4 3.1 19.6 19.6 0 0 0-3 4.5 16.3 16.3 0 0 0-1.5 5.2 21 21 0 0 0-.1 5.6 21.2 21.2 0 0 0 1.3 5.4 15.9 15.9 0 0 0 2.7 4.5 14 14 0 0 0 4.5 3.6 12.8 12.8 0 0 0 10.6.3 10 10 0 0 0 4.1-3.5 2.1 2.1 0 0 0 .4-.6v4.7h5.3V48.1a2.6 2.6 0 0 0-1.3-2.3m-5.7 8.1a12.9 12.9 0 0 1 1.7 5 34.7 34.7 0 0 1 .1 5.6 17.6 17.6 0 0 1-1.3 5.6 7.8 7.8 0 0 1-3.8 4.2 7.9 7.9 0 0 1-3.4 1 7.5 7.5 0 0 1-5.4-1.5 9.9 9.9 0 0 1-3.3-4.7 17.4 17.4 0 0 1-1.1-5.5 20.1 20.1 0 0 1 .5-5.5 13 13 0 0 1 2.3-4.9 7.6 7.6 0 0 1 4.3-2.9 9.2 9.2 0 0 1 5.7.4 7.7 7.7 0 0 1 3.7 3.2m50.1-7.5a11.8 11.8 0 0 0-4.5 2.8 14.3 14.3 0 0 0-3.1 4.2 17.4 17.4 0 0 0-1.7 4.5 24.8 24.8 0 0 0-.6 5.4 21.3 21.3 0 0 0 1 5.6 15.9 15.9 0 0 0 2.4 4.9 14.9 14.9 0 0 0 3.7 3.8 12 12 0 0 0 5.1 2.1 14.6 14.6 0 0 0 5.1 0 11.6 11.6 0 0 0 5-2.1 13.4 13.4 0 0 0 3.7-3.8 15.9 15.9 0 0 0 2.4-4.9 17.1 17.1 0 0 0 .9-5.5 21.2 21.2 0 0 0-.5-5.6 18.7 18.7 0 0 0-2-5.1 14.5 14.5 0 0 0-3.4-4 11.4 11.4 0 0 0-2.5-1.8 13.4 13.4 0 0 0-5.3-1.4 13.9 13.9 0 0 0-5.7.9m1 4.7a6.2 6.2 0 0 1 2.6-.9 7.6 7.6 0 0 1 5.3 1.1l.9.6a8.7 8.7 0 0 1 2 2.3 13.6 13.6 0 0 1 1.9 5.2 19.6 19.6 0 0 1 .2 5.4 16.7 16.7 0 0 1-1.5 5.4 9.6 9.6 0 0 1-3.9 4.1 8.6 8.6 0 0 1-3.8 1 6.7 6.7 0 0 1-2.8-.6 8.2 8.2 0 0 1-4.1-3.7 16.1 16.1 0 0 1-1.8-5.2 18.9 18.9 0 0 1-.2-5.3 15.6 15.6 0 0 1 1.5-5.2 9.5 9.5 0 0 1 3.7-4.2m32.5 1.7.5-.4.6-.4 2.2-1a7.1 7.1 0 0 0 1.7-1.1 2 2 0 0 0 .7-1.6 2.3 2.3 0 0 0-.4-1.4 2.9 2.9 0 0 0-2.6-1.5 5.6 5.6 0 0 0-3.9 1.9 13.1 13.1 0 0 0-2.4 3.7 14.5 14.5 0 0 0 .1-3.6.6.6 0 0 0-.1-.4l-.3-.4-.4-.3a2.6 2.6 0 0 0-3.2-.2 2.7 2.7 0 0 0-1.3 2.1v31.2h5.4V62.1a14.5 14.5 0 0 1 1.2-6.5 6.7 6.7 0 0 1 2.2-2.8z" style="fill:#a287b6"/><path class="b" d="M227.4 52.9a8.8 8.8 0 0 0-1.9-3.4 10.4 10.4 0 0 0-4.5-3.2 16.1 16.1 0 0 0-4.8-.8 13.1 13.1 0 0 0-5.2 1.1 11.1 11.1 0 0 0-4.1 3.3l-.8 1.3a9.4 9.4 0 0 0-3.2-3.9 11.7 11.7 0 0 0-4.8-1.8 10.4 10.4 0 0 0-7.1 1.6 7.5 7.5 0 0 0-2.6 2.4 4.9 4.9 0 0 0-.5-2.9 1.4 1.4 0 0 0-.8-.9 2.7 2.7 0 0 0-2.6.3 2.4 2.4 0 0 0-1.2 2.2v31.1h5.3v-22a6.9 6.9 0 0 1 1.7-4.6 7 7 0 0 1 4.1-2.5 7.1 7.1 0 0 1 5.5 1.1 7 7 0 0 1 3 4.6 7.8 7.8 0 0 1 .2 1.4v22h5.2v-22a7.3 7.3 0 0 1 1.7-4.6 7 7 0 0 1 4.1-2.4 4.8 4.8 0 0 1 2.9 0 7 7 0 0 1 4.5 3 7.2 7.2 0 0 1 1.2 4v19.8a3 3 0 0 0 .8 1.9 2.4 2.4 0 0 0 2.4.7 2.5 2.5 0 0 0 1.7-1.1 2.4 2.4 0 0 0 .4-1.5V57.2a15.4 15.4 0 0 0-.6-4.3m67.1-14.8a3 3 0 0 0-.2-1l-.3-.6a2.5 2.5 0 0 0-3.2-.4 2.8 2.8 0 0 0-1 .9 4 4 0 0 0-.3 1.5c-.1 2.5-.1 5-.1 7.5H287a2.5 2.5 0 0 0-2.2 1.2.9.9 0 0 0-.3.7 2.3 2.3 0 0 0 .2 1.8h.1a3.3 3.3 0 0 0 2.3.9h2.4v28.7h5.2V50.7a11.4 11.4 0 0 0 3.7-.3 2.2 2.2 0 0 0 1.4-.9c.1-.2.1-.4.2-.6v-1a1.8 1.8 0 0 0-1.2-1.5 7.3 7.3 0 0 0-3.3-.4h-.8c0-2.6-.1-5.3-.2-7.9m-25.2 8a2.7 2.7 0 0 0-1.3 2.1v31.2h5.4V62.1a15 15 0 0 1 1.4-6.9 8.4 8.4 0 0 1 2.5-2.8l.7-.4 2.1-1.1.5-.2a3.3 3.3 0 0 0 1.8-1.7 3.4 3.4 0 0 0 .1-1 2.6 2.6 0 0 0-.7-1.5 3.2 3.2 0 0 0-2.9-1.1 5.4 5.4 0 0 0-2.9 1.5 10.4 10.4 0 0 0-2.8 4.1 12.1 12.1 0 0 0 0-3.8.6.6 0 0 0-.1-.4l-.5-.5a2.7 2.7 0 0 0-3.3-.2m-7.1 2a2.5 2.5 0 0 0-1.6-2.3 2.5 2.5 0 0 0-1.9-.2l-.7.3a4.3 4.3 0 0 0-1.1 3.5v.5a12.4 12.4 0 0 0-14.1-3.5 13.5 13.5 0 0 0-5 3.4 18.6 18.6 0 0 0-2.9 4.4 20.1 20.1 0 0 0-1.8 8.4 21.5 21.5 0 0 0 .7 5.6 14.2 14.2 0 0 0 1 2.9 25.5 25.5 0 0 0 2.4 3.9 13 13 0 0 0 4.1 3.3 12.9 12.9 0 0 0 5.4 1.5 12.1 12.1 0 0 0 5-.7 10.5 10.5 0 0 0 3.9-2.7 10.9 10.9 0 0 0 1.3-1.7v4.8h5.3V48.1m-15.8 2.1a8.9 8.9 0 0 1 5.6.7 7.2 7.2 0 0 1 3.2 3 12.4 12.4 0 0 1 1.7 5 35 35 0 0 1 .2 5.6 21.7 21.7 0 0 1-1.3 5.6 8.2 8.2 0 0 1-3.8 4.2 8.3 8.3 0 0 1-3.4 1 7.5 7.5 0 0 1-5.4-1.5 9.8 9.8 0 0 1-3.4-4.6 21.4 21.4 0 0 1-1.1-5.6 20.2 20.2 0 0 1 .6-5.5 11.9 11.9 0 0 1 2.3-4.8 7.4 7.4 0 0 1 4.8-3.1z"/><path d="M7.2 4.4 0 0l3 7.9a1.5 1.5 0 0 1 .3-.6 5.5 5.5 0 0 1 1.5-1.6l1.8-1.2h.6M15 17.9a30.2 30.2 0 0 0-3.1 3.1l-.6.7-.7 1.1a4.5 4.5 0 0 0-1 2.8l3 7.9a7.9 7.9 0 0 1 1.3-3.2 27.6 27.6 0 0 1 6-6.6 27.3 27.3 0 0 1 7.4-4.7 9 9 0 0 1 3.4-.8L23.5 14a4.6 4.6 0 0 0-2.9.4l-1.6.8-.4.2a33.8 33.8 0 0 0-3.6 2.5M11.4 6.8c-.3-.1-.7 0-1.4.3a9.2 9.2 0 0 0-2.7 1.7 11.3 11.3 0 0 0-2.1 2.4 2.1 2.1 0 0 0-.5 1.3l2.9 7.7a4.5 4.5 0 0 1 .8-1.8 16.3 16.3 0 0 1 3.6-4 15.9 15.9 0 0 1 4.6-2.9 4.9 4.9 0 0 1 1.9-.5l-7.1-4.2M37 24.2c1.6-.4 2.8-.5 3.6-.1L36 21.4l-1-.2a6.5 6.5 0 0 0-2.5.5l-1 .4a30 30 0 0 0-8.5 5.3 31.8 31.8 0 0 0-6.7 7.4l-.6 1a5.1 5.1 0 0 0-.9 3.4l1.9 4.9c-.3-.8 0-2 .7-3.4l.9-1.6a34.9 34.9 0 0 1 7.5-8.3 37.9 37.9 0 0 1 9.6-6.1z" style="fill:#c7b6d4"/><path d="M18.5 11a3.8 3.8 0 0 0-1.9.5 17.7 17.7 0 0 0-4.6 2.8 21.3 21.3 0 0 0-3.6 4 5.5 5.5 0 0 0-.8 1.9l2.1 5.4c-.2-.6.2-1.6.9-2.8l.8-1.1.5-.7 3.1-3.1a32.7 32.7 0 0 1 3.6-2.5l.4-.2 1.6-.8a4.6 4.6 0 0 1 2.9-.4l-5-3M10 7a2.7 2.7 0 0 1 1.4-.2L7.2 4.3l-.5.2a5.9 5.9 0 0 0-1.9 1.2 7.1 7.1 0 0 0-1.5 1.6 1.6 1.6 0 0 1-.3.6l.3.8 1.4 3.8c-.1-.3.1-.8.5-1.4a9 9 0 0 1 2.1-2.3A15.7 15.7 0 0 1 10 7m22.5 14.7a9.2 9.2 0 0 1 2.5-.5l1 .2-5.3-3.1a7.3 7.3 0 0 0-3.4.7 27.3 27.3 0 0 0-7.4 4.7 29.9 29.9 0 0 0-6 6.6 8.5 8.5 0 0 0-1.3 3.2l2.2 5.7a4.8 4.8 0 0 1 .9-3.3 8.9 8.9 0 0 1 .5-1 32.5 32.5 0 0 1 6.8-7.4 34.5 34.5 0 0 1 8.4-5.4z" style="fill:#efe0f3"/><path d="M40.6 24.1a5 5 0 0 0-3.6.1l-1.6.5a35.9 35.9 0 0 0-9.5 6.1 33.7 33.7 0 0 0-7.6 8.3l-.9 1.6a5.3 5.3 0 0 0-.7 3.4l.2.4.2.4c.9 1.1 2.9 1 5.9-.2l3-1.5a34.7 34.7 0 0 0 6.5-4.5 42.2 42.2 0 0 0 5.6-5.6 18.5 18.5 0 0 0 1.9-2.7c1.8-2.7 2.2-4.7 1.2-5.8l-.3-.3z" style="fill:#aa8aaa"/><path class="b" d="M40.9 46.2a5.6 5.6 0 0 0-3.2-.6 10.4 10.4 0 0 0-3.3 1 18.1 18.1 0 0 0-2.9 1.9 18.4 18.4 0 0 0-2.6 2.9 18.3 18.3 0 0 0-3.5 7.6 22.9 22.9 0 0 0-.2 9.4l-3.8 2.1 2.4 3.1 2.5-1.4a9.1 9.1 0 0 0 1.9 3 8 8 0 0 0 4.5 2.2 11.2 11.2 0 0 0 7.8-2.2l.4-.2a39.5 39.5 0 0 0 8.6-8.7 18.4 18.4 0 0 0 2.2-3.6 3.4 3.4 0 0 0 .7-2.2 58.2 58.2 0 0 1-5.3 5.6 49.4 49.4 0 0 1-6.6 5.3 10.4 10.4 0 0 1-7 2.3 3.8 3.8 0 0 1-2.4-1.1 4.7 4.7 0 0 1-1.3-2.4 39.7 39.7 0 0 0 5.1-3.6 28.5 28.5 0 0 0 5.7-6.3 25.3 25.3 0 0 0 2.4-4.5 12.3 12.3 0 0 0 .9-4.3 6.1 6.1 0 0 0-.8-3.2 5.6 5.6 0 0 0-2.2-2.1m-12 20.1a19.4 19.4 0 0 1 .9-6.7 21.6 21.6 0 0 1 2.6-5.7 14.5 14.5 0 0 1 3.3-3.6c1.5-1.2 2.7-1.5 3.6-1s1.1 1.2 1 2.4-1.1 3.8-2.8 6.4a22.2 22.2 0 0 1-3.9 4.7 21.3 21.3 0 0 1-4.7 3.5z"/><path d="M18 75.8a4 4 0 0 0-1.5 1.2 4.9 4.9 0 0 0-.6 2.7 7 7 0 0 1 2.3-1.1h2.6z" style="fill:#893a7f"/><path d="m30.5 36.7-2.8.5a11.1 11.1 0 0 1-2.3 4.1l3-.3a10.7 10.7 0 0 0 2.1-4.3z" style="fill:#68545b"/><path class="h" d="M47.3 41.4H51v3.8h-3.7z"/><path class="i" d="M22.2 44.9h-.3l-.6 1.4a5.9 5.9 0 0 1 3.3 1.7 2.3 2.3 0 0 1 .5 3 2.4 2.4 0 0 0 .9-1.5 3.3 3.3 0 0 0-.6-2.9 5.8 5.8 0 0 0-3.2-1.7z"/><path class="j" d="M21.1 46.1h.2l.6-1.4h-1.7l-.5 1.3h1.4z"/><path class="k" d="M18.8 44.8a6.1 6.1 0 0 0-1.3.3 7.6 7.6 0 0 0-3.9 2.2 9.1 9.1 0 0 0-2 3.1 8 8 0 0 1 4.2-3.7l2.9-.6h1l.5-1.3h-1.4z"/><path class="h" d="M11.6 50.4a9.3 9.3 0 0 1 1.9-3.1 8.3 8.3 0 0 1 4-2.2 10.7 10.7 0 0 1 4.7-.2 5.1 5.1 0 0 1 3.1 1.8 2.9 2.9 0 0 1 .7 2.8 3 3 0 0 1-.9 1.5 2.4 2.4 0 0 0-.5-3 5.7 5.7 0 0 0-3.6-1.8 9.7 9.7 0 0 0-5.2.6 7.4 7.4 0 0 0-4.2 3.6z"/><path class="j" d="M25.1 51.1a2.8 2.8 0 0 0 .6-.8 1.9 1.9 0 0 1-1 .5l-.4.8a1.6 1.6 0 0 0 .8-.5z"/><path class="i" d="M20.5 49.1c-1.5-1.8-2.2-4.4-2.2-7.8a2.7 2.7 0 0 0-1.3 1.5 10.7 10.7 0 0 0 2.4 7 4.9 4.9 0 0 0 4 1.9h.9l.4-.8h-1.6a4.8 4.8 0 0 1-2.6-1.8z"/><path class="h" d="M17 42.8a2.7 2.7 0 0 1 1.3-1.5c0 3.4.7 6 2.2 7.8a5.4 5.4 0 0 0 2.6 1.6h1.5a1.6 1.6 0 0 0 1.1-.4l-.6.8a2.4 2.4 0 0 1-1.7.6 5.1 5.1 0 0 1-4-2q-2.2-2.4-2.4-6.9z"/><path class="k" d="m14.1 58.9.8-1.9a14.7 14.7 0 0 0-2.9.5 9.4 9.4 0 0 0-4.3 2.7 8.4 8.4 0 0 0-2 4.6 9.5 9.5 0 0 1 4.4-5 8.7 8.7 0 0 1 4-.9z"/><path class="j" d="M14.1 58.9h2l.8-1.8-2-.2z"/><path class="i" d="M23 63.5a4 4 0 0 0-1-3.8 6.3 6.3 0 0 0-2.4-1.8l-1.8-.5-.9-.2-.8 1.8h.1a14 14 0 0 1 2.9.9 7 7 0 0 1 1.9 1.5 3.4 3.4 0 0 1 .8 4.1 4.7 4.7 0 0 0 1.2-2z"/><path class="h" d="M5.7 64.8a8.4 8.4 0 0 1 2-4.6 8.9 8.9 0 0 1 4.3-2.7 10 10 0 0 1 5.7-.1 7.2 7.2 0 0 1 4.3 2.3 4.3 4.3 0 0 1 .9 3.8 3.3 3.3 0 0 1-1.2 2 3.4 3.4 0 0 0-.7-4.1 8.2 8.2 0 0 0-4.9-2.4 10.6 10.6 0 0 0-6 .8 9.1 9.1 0 0 0-4.4 5z"/><path class="i" d="M8.6 59.2a20.5 20.5 0 0 0-2 2.3 15.4 15.4 0 0 0-1 1.9 22.1 22.1 0 0 0-.7 3.2 13.4 13.4 0 0 0 .2 4.4 14.2 14.2 0 0 0 1.8 5.1 15.8 15.8 0 0 0 4.6 5.3 7.6 7.6 0 0 0 2.2-1.1 14.2 14.2 0 0 1-6.6-9.5 15.8 15.8 0 0 1 1.5-11.6z"/><path class="h" d="M4.9 66.6a13.3 13.3 0 0 1 .8-3.2 4.9 4.9 0 0 1 1-1.9 12.8 12.8 0 0 1 1.9-2.3 17.3 17.3 0 0 0-1.9 6 17.5 17.5 0 0 0 .4 5.6 14.9 14.9 0 0 0 6.6 9.5 6.5 6.5 0 0 1-2.2 1.1 18.4 18.4 0 0 1-4.6-5.3A18.4 18.4 0 0 1 5.1 71a16.6 16.6 0 0 1-.2-4.4z"/><path class="j" d="m21.7 65.6.9-1.1a2.1 2.1 0 0 1-1.2.4l-.7 1.3a2.1 2.1 0 0 0 1-.6z"/><path class="i" d="M14.4 46.5a9.9 9.9 0 0 0-3.2 4.7 9.3 9.3 0 0 0-.5 3.2 15.1 15.1 0 0 0 .2 3.7 10.5 10.5 0 0 0 1.3 3.4 11.7 11.7 0 0 0 1.9 2.7 7.4 7.4 0 0 0 5.2 2.2l1.4-.2.7-1.3H21l-2.1-.2A6.4 6.4 0 0 1 17 64a9 9 0 0 1-2-1.7 10.7 10.7 0 0 1-1.8-3.2 14.6 14.6 0 0 1-.9-3.9 13.2 13.2 0 0 1 2.1-8.7z"/><path class="h" d="M11.2 51.2a9.9 9.9 0 0 1 3.2-4.7 13.2 13.2 0 0 0-2.1 8.7 15.3 15.3 0 0 0 .9 4 12.2 12.2 0 0 0 1.8 3.2 7.2 7.2 0 0 0 2 1.7 4.7 4.7 0 0 0 1.9.7 4.7 4.7 0 0 0 2.1.2 2.1 2.1 0 0 0 1.5-.5l-.8 1.1a3.6 3.6 0 0 1-2.4.8 7 7 0 0 1-5.2-2.2 11.1 11.1 0 0 1-2-2.6 11.6 11.6 0 0 1-1.2-3.4 11.6 11.6 0 0 1-.3-3.7 25.4 25.4 0 0 1 .6-3.3z"/><path class="l" d="M39.3 30.6a4.3 4.3 0 0 1 2-.7 4.3 4.3 0 0 1 2.6.8 4.4 4.4 0 0 0-1.5-1 4 4 0 0 0-1.9-.2 4.9 4.9 0 0 0-1.8.8 2.2 2.2 0 0 0-.9 1.3 1.3 1.3 0 0 0 .2 1.2l.6.4a1.1 1.1 0 0 1-.3-1.3 2.6 2.6 0 0 1 1-1.3z"/><path class="h" d="M43.9 30.7a3.1 3.1 0 0 0-1.5-1 4 4 0 0 0-1.9-.2 4.9 4.9 0 0 0-1.8.8 2.2 2.2 0 0 0-.9 1.3 1.3 1.3 0 0 0 .2 1.2l.6.4a1.1 1.1 0 0 1-.3-1.3 2.6 2.6 0 0 1 1-1.3 4.3 4.3 0 0 1 2-.7 4.3 4.3 0 0 1 2.6.8z"/><path class="l" d="M40.3 28.6a2 2 0 0 0-.8-.4 5.6 5.6 0 0 1 .6 3.4 1.8 1.8 0 0 1-.8 1.1l-.5.3a.4.4 0 0 1-.5 0l.4.2c.2.1.4.1.8-.1a2 2 0 0 0 1.1-1.4 4.3 4.3 0 0 0-.3-3.1z"/><path class="h" d="M40.3 28.6a2 2 0 0 0-.8-.4 5.6 5.6 0 0 1 .6 3.4 2.3 2.3 0 0 1-.8 1.1l-.5.3a.4.4 0 0 1-.5 0l.4.2c.2.1.4.1.8-.1a2 2 0 0 0 1.1-1.4 4.3 4.3 0 0 0-.3-3.1z"/><path class="l" d="M48.7 34.9a4.1 4.1 0 0 0-1.7-1.3 3.8 3.8 0 0 0-2.2-.3 4 4 0 0 0-2.2 1 3.8 3.8 0 0 0-1.2 1.7 1.6 1.6 0 0 0 .3 1.6l.8.5a1.3 1.3 0 0 1-.4-1.6 3.5 3.5 0 0 1 1.5-1.9 4.5 4.5 0 0 1 2.5-.7 3.9 3.9 0 0 1 2.6 1z"/><path class="h" d="M48.7 34.9a4.1 4.1 0 0 0-1.7-1.3 3.8 3.8 0 0 0-2.2-.3 4.3 4.3 0 0 0-2.2 1 3.3 3.3 0 0 0-1.2 1.7 1.6 1.6 0 0 0 .3 1.6 1.9 1.9 0 0 0 .9.5 1.4 1.4 0 0 1-.5-1.7 3.2 3.2 0 0 1 1.5-1.8 4.5 4.5 0 0 1 2.5-.7 3.9 3.9 0 0 1 2.6 1z"/><path class="m" d="m48.6 34.5-1-.7-1.1-.4a6 6 0 0 1 2 1.7 6.2 6.2 0 0 1 .8 2.3 8.2 8.2 0 0 1 0 2.7 9.2 9.2 0 0 1-.9 2.3h1a7.1 7.1 0 0 0 .8-2.9 7.5 7.5 0 0 0-.2-2.2 13.8 13.8 0 0 0-.6-1.6zM44.8 31.9a3.5 3.5 0 0 0-.8-1.1 3.8 3.8 0 0 0-2.1-1.3 4.9 4.9 0 0 1 2.3 2.2 6 6 0 0 1 .6 2.4 5.7 5.7 0 0 1-.2 1.6 1.9 1.9 0 0 1-.5 1 1.8 1.8 0 0 1-.5.7l-.8.4a.6.6 0 0 1-.7.1l.5.3a1.4 1.4 0 0 0 1.1-.1 2.8 2.8 0 0 0 1.5-1.8 2.9 2.9 0 0 0 .3-1.4 3.8 3.8 0 0 0-.1-1.5 9.4 9.4 0 0 0-.6-1.5z"/><path class="h" d="M44 30.7a3.7 3.7 0 0 0-2.1-1.2 4.3 4.3 0 0 1 2.2 2.2 4.9 4.9 0 0 1 .7 2.4 3.8 3.8 0 0 1-.3 1.6 1.9 1.9 0 0 1-.4 1 1.3 1.3 0 0 1-.6.7l-.7.4c-.3.1-.5.2-.7.1l.5.3a1.3 1.3 0 0 0 1-.2 2.7 2.7 0 0 0 1.6-1.7 3.2 3.2 0 0 0 .3-1.4 8.6 8.6 0 0 0-.1-1.6 14.7 14.7 0 0 0-.6-1.4z"/><path class="l" d="M47.8 41c-.9 1.2-.7 2.5.7 3.9a7.5 7.5 0 0 1 2.8-3.7z"/><path class="h" d="M51.3 41.2a7.5 7.5 0 0 0-2.8 3.7c-1.4-1.4-1.6-2.7-.8-3.9l3.6.2-.4-.2.7-1.2z"/></svg>