<svg version="1.1" id="layer_1" xmlns="http://www.w3.org/2000/svg" x="0" y="0" width="164" height="40" viewBox="0 0 328 80" xml:space="preserve"><style>.st2{fill:#793b78}</style><g id="layer_2_1_"><path d="M288 80H40C17.91 80 0 62.09 0 40S17.91 0 40 0h248c22.09 0 40 17.91 40 40s-17.91 40-40 40z" fill="#fff"/><path class="st2" d="M288 2.2c20.84 0 37.8 16.96 37.8 37.8 0 20.84-16.96 37.8-37.8 37.8H40C19.16 77.8 2.2 60.84 2.2 40S19.16 2.2 40 2.2h248m0-2.2H40C17.91 0 0 17.91 0 40s17.91 40 40 40h248c22.09 0 40-17.91 40-40 0-22.1-17.91-40-40-40z"/><path class="st2" d="M264.78 32.38c5.51 0 9.5-2.17 9.5-5.17s-4-5.17-9.5-5.17-9.5 2.18-9.5 5.17 3.99 5.17 9.5 5.17zm0-7.35c4.22 0 6.5 1.54 6.5 2.17s-2.28 2.17-6.5 2.17-6.5-1.54-6.5-2.17c-.01-.63 2.27-2.17 6.5-2.17z"/><path class="st2" d="M304.17 32.32c0-.77-.33-1.51-.88-2.04-.55-.52-1.31-.8-2.07-.77-.54.03-1.09.04-1.65.04-4.87 0-9.47-1.07-12.28-2.81-.47-6.03-10.19-10.69-22.51-10.69-12.65 0-22.56 4.9-22.56 11.15v22.12c0 6.25 9.9 11.15 22.54 11.15 12.01 0 21.53-4.42 22.46-10.23 3.25 1.55 7.65 2.45 12.36 2.45.67 0 1.33-.02 1.98-.05 1.5-.08 2.68-1.32 2.67-2.83l-.06-17.49zm-16.88-2.17c.78.36 1.61.69 2.51.98-.01.06-.02.11-.02.17v4.8c0 .83.67 1.5 1.5 1.5s1.5-.67 1.5-1.5v-4.2c.87.17 1.76.32 2.68.42v17.12c-3.28-.41-6.18-1.31-8.18-2.55V30.15h.01zm-22.51-11.1c11.47 0 19.47 4.26 19.53 8.11 0 .05-.01.09-.01.14v.06c-.21 3.82-8.16 8-19.52 8-11.53 0-19.56-4.3-19.56-8.15s8.03-8.16 19.56-8.16zm-.02 38.43c-11.51 0-19.54-4.3-19.54-8.15V32.84c1.62 1.4 3.83 2.59 6.49 3.51v9.67c0 .83.67 1.5 1.5 1.5s1.5-.67 1.5-1.5v-8.79c2.72.66 5.77 1.05 9.01 1.12-.01.07-.02.13-.02.2v8.95c0 .83.67 1.5 1.5 1.5s1.5-.67 1.5-1.5v-8.95c0-.08-.01-.15-.02-.23 3.27-.13 6.32-.59 9.01-1.31v8.23c0 .83.67 1.5 1.5 1.5s1.5-.67 1.5-1.5v-9.2c2.26-.87 4.17-1.94 5.61-3.18v16.47c-.01 3.85-8.03 8.15-19.54 8.15zm34.81-7.78c-.37 0-.73-.02-1.1-.03V32.53c.37.01.73.03 1.1.03.54 0 1.08-.01 1.6-.03l.05 17.14c-.54.01-1.09.03-1.65.03z"/><g><path class="st2" d="M36.62 44.67c0 .92.16 1.7.47 2.35s.75 1.18 1.31 1.6c.56.42 1.2.72 1.93.91.73.19 1.52.29 2.37.29.92 0 1.7-.11 2.35-.32s1.18-.49 1.58-.82c.4-.34.69-.72.87-1.16.18-.44.27-.88.27-1.33 0-.92-.21-1.6-.62-2.03-.41-.44-.87-.74-1.36-.92-.85-.31-1.84-.61-2.97-.89s-2.53-.64-4.18-1.09c-1.03-.27-1.89-.62-2.57-1.06-.68-.44-1.23-.92-1.63-1.46-.4-.54-.69-1.11-.86-1.71a6.82 6.82 0 01-.25-1.85c0-1.21.25-2.26.76-3.14.5-.88 1.17-1.62 2-2.2s1.77-1.01 2.82-1.29c1.05-.28 2.12-.42 3.19-.42 1.25 0 2.44.16 3.54.49 1.11.33 2.08.81 2.92 1.46.84.65 1.51 1.45 2 2.4s.74 2.05.74 3.31h-4.2c-.11-1.55-.64-2.64-1.58-3.28-.94-.64-2.14-.96-3.6-.96-.49 0-1 .05-1.51.15-.52.1-.99.27-1.41.5-.43.24-.78.55-1.06.96s-.42.91-.42 1.51c0 .85.26 1.52.79 2s1.21.85 2.07 1.09c.09.02.44.12 1.06.29s1.3.35 2.07.55c.76.2 1.51.4 2.23.59.73.19 1.25.33 1.56.42.78.25 1.47.58 2.05 1.01s1.07.91 1.46 1.46c.39.55.68 1.14.87 1.76.19.63.29 1.25.29 1.88 0 1.34-.27 2.49-.82 3.44s-1.27 1.73-2.17 2.33c-.9.6-1.92 1.05-3.06 1.33-1.14.28-2.31.42-3.49.42-1.37 0-2.65-.17-3.86-.5-1.21-.34-2.26-.85-3.16-1.55-.9-.69-1.61-1.58-2.15-2.67-.54-1.09-.82-2.37-.84-3.85h4.2zM55.63 28.68h4.2v23.99h-4.2V28.68zM64.27 28.68h18.24v3.19L68.53 49.04h14.32v3.63H63.19v-3.43l13.98-16.93h-12.9v-3.63zM86.14 28.68h17.27v3.63H90.34v6.28h12.1v3.43h-12.1v7.02h13.31v3.63H86.14V28.68zM132.84 36.3c-.18-.69-.43-1.33-.74-1.92-.31-.58-.72-1.09-1.21-1.51a5.18 5.18 0 00-1.73-.99c-.66-.24-1.43-.35-2.3-.35-1.28 0-2.38.26-3.31.77s-1.69 1.2-2.27 2.07c-.58.86-1.01 1.84-1.29 2.94-.28 1.1-.42 2.22-.42 3.36s.14 2.26.42 3.36.71 2.08 1.29 2.94a6.55 6.55 0 002.27 2.07c.93.52 2.03.77 3.31.77.94 0 1.77-.16 2.49-.49s1.33-.77 1.85-1.34c.51-.57.92-1.24 1.21-2 .29-.76.48-1.58.57-2.45h4.1c-.09 1.43-.4 2.74-.92 3.93a9.707 9.707 0 01-2.13 3.07c-.9.86-1.95 1.53-3.16 2-1.21.47-2.54.71-4 .71-1.79 0-3.4-.33-4.82-.99s-2.63-1.56-3.61-2.71-1.74-2.47-2.27-4c-.53-1.52-.79-3.15-.79-4.87 0-1.7.26-3.31.79-4.84.53-1.52 1.28-2.86 2.27-4s2.19-2.05 3.61-2.72c1.42-.67 3.03-1.01 4.82-1.01 1.34 0 2.61.18 3.8.55s2.23.91 3.14 1.61c.91.71 1.64 1.56 2.2 2.57.56 1.01.91 2.16 1.04 3.46h-4.21v.01zM140.81 28.68h4.2v9.54h10.92v-9.54h4.2v23.99h-4.2V41.85h-10.92v10.82h-4.2V28.68zM171.58 28.68h4.47l9.24 23.99h-4.5l-2.25-6.35h-9.58l-2.25 6.35h-4.33l9.2-23.99zm-1.47 14.45h7.32l-3.59-10.32h-.1l-3.63 10.32zM187.58 28.68h11.46c2.64 0 4.62.57 5.95 1.71 1.32 1.14 1.98 2.73 1.98 4.77 0 1.14-.17 2.09-.5 2.84-.34.75-.73 1.36-1.18 1.81-.45.46-.89.79-1.33.99s-.76.34-.96.4v.07c.36.05.74.16 1.16.34.41.18.8.47 1.16.86s.66.9.89 1.53c.24.63.35 1.41.35 2.35 0 1.41.11 2.69.32 3.85.21 1.15.54 1.98.99 2.47h-4.5c-.31-.51-.5-1.09-.55-1.71-.06-.63-.08-1.23-.08-1.81 0-1.1-.07-2.04-.2-2.84-.13-.79-.38-1.46-.74-1.98s-.85-.91-1.46-1.16c-.62-.25-1.41-.37-2.37-.37h-6.18v9.88h-4.2l-.01-24zm4.2 10.92h6.89c1.34 0 2.36-.32 3.06-.96.69-.64 1.04-1.6 1.04-2.87 0-.76-.11-1.38-.34-1.87-.22-.48-.53-.86-.92-1.12-.39-.27-.84-.45-1.34-.54-.5-.09-1.03-.13-1.56-.13h-6.82l-.01 7.49zM208.34 28.68h19.42v3.63h-7.63v20.36h-4.2V32.31h-7.59v-3.63z"/></g></g></svg>