<svg xmlns="http://www.w3.org/2000/svg" width="40" height="40" viewBox="0 0 80 80"><style>.st2{fill:#793b78}</style><g id="layer_2"><circle cx="40" cy="40" r="38.93" fill="#fff"/><path class="st2" d="M40 80C17.94 80 0 62.06 0 40S17.94 0 40 0s40 17.94 40 40-17.94 40-40 40zm0-77.86C19.12 2.14 2.14 19.12 2.14 40S19.12 77.86 40 77.86 77.86 60.88 77.86 40 60.88 2.14 40 2.14z"/><g><path class="st2" d="M31.78 34.27c5.36 0 9.25-2.12 9.25-5.03s-3.89-5.03-9.25-5.03c-5.36 0-9.25 2.12-9.25 5.03s3.89 5.03 9.25 5.03zm0-7.15c4.11 0 6.33 1.5 6.33 2.11 0 .61-2.22 2.11-6.33 2.11-4.11 0-6.33-1.5-6.33-2.11 0-.61 2.22-2.11 6.33-2.11z"/><path class="st2" d="M70.12 34.21c0-.75-.32-1.47-.86-1.98a2.78 2.78 0 00-2.02-.75c-.53.03-1.06.04-1.61.04-4.74 0-9.22-1.04-11.95-2.74-.46-5.87-9.92-10.4-21.91-10.4-12.31 0-21.95 4.77-21.95 10.85v21.53c0 6.09 9.63 10.85 21.93 10.85 11.69 0 20.96-4.3 21.86-9.95 3.16 1.51 7.45 2.38 12.03 2.38.65 0 1.3-.02 1.93-.05 1.46-.08 2.6-1.29 2.6-2.75l-.05-17.03zM53.7 32.1c.76.35 1.57.68 2.44.95-.01.05-.02.11-.02.16v4.67c0 .81.65 1.46 1.46 1.46.81 0 1.46-.65 1.46-1.46V33.8c.84.17 1.71.31 2.61.41v16.66c-3.19-.4-6.01-1.28-7.96-2.48V32.1zM31.78 21.3c11.16 0 18.95 4.15 19.01 7.89 0 .04-.01.09-.01.13v.06c-.2 3.71-7.94 7.79-19 7.79-11.22 0-19.03-4.18-19.03-7.93s7.82-7.94 19.03-7.94zm-.02 37.4c-11.21 0-19.01-4.18-19.01-7.93V34.72c1.58 1.36 3.73 2.52 6.31 3.42v9.41c0 .81.65 1.46 1.46 1.46.81 0 1.46-.65 1.46-1.46V39c2.65.64 5.61 1.02 8.77 1.09-.01.06-.02.13-.02.19v8.71c0 .81.65 1.46 1.46 1.46s1.46-.65 1.46-1.46v-8.71c0-.08-.01-.15-.02-.22 3.18-.13 6.15-.57 8.77-1.28v8.01c0 .81.65 1.46 1.46 1.46.81 0 1.46-.65 1.46-1.46v-8.96c2.2-.84 4.05-1.89 5.46-3.09v16.03c0 3.75-7.81 7.93-19.02 7.93zm33.89-7.57c-.36 0-.71-.02-1.07-.03V34.41c.36.01.71.03 1.07.03.53 0 1.05-.01 1.56-.03l.04 16.68c-.53.02-1.06.04-1.6.04z"/></g></g></svg>